<?xml version="1.0" encoding="UTF-8" standalone="no"?>
<svg width="441px" height="299px" viewBox="0 0 441 299" version="1.1" xmlns="http://www.w3.org/2000/svg" xmlns:xlink="http://www.w3.org/1999/xlink" xmlns:sketch="http://www.bohemiancoding.com/sketch/ns">
    <!-- Generator: Sketch 3.4.2 (15857) - http://www.bohemiancoding.com/sketch -->
    <title>Card</title>
    <desc>Created with Sketch.</desc>
    <defs>
        <filter x="-50%" y="-50%" width="200%" height="200%" filterUnits="objectBoundingBox" id="filter-1">
            <feOffset dx="0" dy="5" in="SourceAlpha" result="shadowOffsetOuter1"></feOffset>
            <feGaussianBlur stdDeviation="2.5" in="shadowOffsetOuter1" result="shadowBlurOuter1"></feGaussianBlur>
            <feColorMatrix values="0 0 0 0 0   0 0 0 0 0   0 0 0 0 0  0 0 0 0.07 0" in="shadowBlurOuter1" type="matrix" result="shadowMatrixOuter1"></feColorMatrix>
            <feMerge>
                <feMergeNode in="shadowMatrixOuter1"></feMergeNode>
                <feMergeNode in="SourceGraphic"></feMergeNode>
            </feMerge>
        </filter>
        <filter x="-50%" y="-50%" width="200%" height="200%" filterUnits="objectBoundingBox" id="filter-2">
            <feOffset dx="0" dy="2" in="SourceAlpha" result="shadowOffsetOuter1"></feOffset>
            <feGaussianBlur stdDeviation="3" in="shadowOffsetOuter1" result="shadowBlurOuter1"></feGaussianBlur>
            <feColorMatrix values="0 0 0 0 0   0 0 0 0 0   0 0 0 0 0  0 0 0 0.07 0" in="shadowBlurOuter1" type="matrix" result="shadowMatrixOuter1"></feColorMatrix>
            <feMerge>
                <feMergeNode in="shadowMatrixOuter1"></feMergeNode>
                <feMergeNode in="SourceGraphic"></feMergeNode>
            </feMerge>
        </filter>
        <path d="M164,95.6437337 C164,94.7359246 164.733491,94 165.643734,94 L268.356266,94 C269.264075,94 270,94.733491 270,95.6437337 L270,198.356266 C270,199.264075 269.266509,200 268.356266,200 L165.643734,200 C164.735925,200 164,199.266509 164,198.356266 L164,95.6437337 Z M180.457901,141.53119 L192.124909,141.53119 L192.124909,143.738462 L177.27599,143.738462 L177.27599,141.645853 L188.427012,125.091316 L177.433653,125.091316 L177.433653,122.869712 L191.651922,122.869712 L191.651922,124.890655 L180.457901,141.53119 Z M206.833555,138.363612 L198.090466,138.363612 L196.112522,143.738462 L193.231602,143.738462 L201.301043,122.869712 L203.723309,122.869712 L211.663754,143.738462 L208.782834,143.738462 L206.833555,138.363612 Z M198.964775,135.998678 L205.987912,135.998678 L202.548008,126.495944 L202.462011,126.495944 L198.964775,135.998678 Z M216.669005,134.694381 L216.669005,143.738462 L213.845417,143.738462 L213.845417,122.884044 L221.398873,122.884044 C223.682598,122.884044 225.426421,123.39047 226.630393,124.403335 C227.834365,125.416201 228.436343,126.887701 228.436343,128.817879 C228.436343,129.888076 228.156853,130.819708 227.597866,131.6128 C227.038879,132.405893 226.224299,133.036536 225.154101,133.504748 C226.300741,133.877406 227.124877,134.481772 227.626532,135.317864 C228.128187,136.153956 228.379011,137.188305 228.379011,138.420944 L228.379011,140.384555 C228.379011,141.034318 228.450675,141.617185 228.594005,142.133173 C228.737335,142.649161 228.98577,143.06959 229.339317,143.394471 L229.339317,143.738462 L226.429732,143.738462 C226.057074,143.41358 225.818194,142.93582 225.713085,142.305168 C225.607977,141.674516 225.555423,141.024763 225.555423,140.355889 L225.555423,138.449609 C225.555423,137.32208 225.225769,136.414336 224.566451,135.726352 C223.907132,135.038368 223.023277,134.694381 221.914858,134.694381 L216.669005,134.694381 Z M216.669005,132.472776 L221.112214,132.472776 C222.707955,132.472776 223.856967,132.169399 224.559284,131.562635 C225.261601,130.955871 225.612755,130.031406 225.612755,128.789213 C225.612755,127.613906 225.271157,126.703774 224.58795,126.058789 C223.904744,125.413804 222.841728,125.091316 221.398873,125.091316 L216.669005,125.091316 L216.669005,132.472776 Z M235.591534,143.738462 L232.753613,143.738462 L232.753613,122.869712 L235.591534,122.869712 L235.591534,143.738462 Z M256.820072,143.738462 L253.996484,143.738462 L243.949099,127.599579 L243.863101,127.628245 L243.863101,143.738462 L241.039513,143.738462 L241.039513,122.869712 L243.863101,122.869712 L253.910487,138.979928 L253.996484,138.951262 L253.996484,122.869712 L256.820072,122.869712 L256.820072,143.738462 Z M197.389873,164.940054 L197.418538,165.026052 C197.236987,167.11867 196.491682,168.764552 195.182601,169.963747 C193.87352,171.162942 192.120142,171.76253 189.922415,171.76253 C187.600468,171.76253 185.72765,170.924062 184.303905,169.2471 C182.88016,167.570139 182.168298,165.398721 182.168298,162.732782 L182.168298,159.335877 C182.168298,156.679494 182.88016,154.508076 184.303905,152.821559 C185.72765,151.135043 187.600468,150.291797 189.922415,150.291797 C192.139253,150.291797 193.897408,150.879441 195.196934,152.054748 C196.49646,153.230054 197.236987,154.883102 197.418538,157.013942 L197.389873,157.09994 L195.784584,157.09994 C195.555256,155.370424 194.960445,154.04703 194.000134,153.129718 C193.039823,152.212405 191.680596,151.753756 189.922415,151.753756 C188.097345,151.753756 186.633012,152.46084 185.529371,153.87503 C184.425729,155.28922 183.873917,157.099929 183.873917,159.307212 L183.873917,162.732782 C183.873917,164.968731 184.425729,166.791384 185.529371,168.200796 C186.633012,169.610208 188.097345,170.314904 189.922415,170.314904 C191.680596,170.314904 193.042211,169.86581 194.0073,168.967608 C194.972389,168.069407 195.564811,166.726902 195.784584,164.940054 L197.389873,164.940054 Z M212.356512,165.642368 L202.796446,165.642368 L200.646506,171.461538 L198.869222,171.461538 L206.795334,150.592788 L208.414955,150.592788 L216.283736,171.461538 L214.506452,171.461538 L212.356512,165.642368 Z M203.369763,164.108744 L211.797528,164.108744 L207.640977,152.814393 L207.55498,152.814393 L203.369763,164.108744 Z M220.457677,162.030469 L220.457677,171.461538 L218.752058,171.461538 L218.752058,150.607121 L225.818193,150.607121 C228.054142,150.607121 229.769299,151.096825 230.963716,152.076247 C232.158133,153.055669 232.755333,154.486559 232.755333,156.36896 C232.755333,157.477379 232.435234,158.468731 231.795026,159.343044 C231.154819,160.217357 230.251853,160.855166 229.086102,161.25649 C230.376073,161.581372 231.305315,162.16185 231.873858,162.997942 C232.4424,163.834034 232.726667,164.882716 232.726667,166.14402 L232.726667,168.107632 C232.726667,168.757395 232.803109,169.340262 232.955994,169.85625 C233.108879,170.372238 233.362092,170.792667 233.715639,171.117548 L233.715639,171.461538 L231.967022,171.461538 C231.613474,171.117546 231.365039,170.635009 231.221709,170.013912 C231.078379,169.392815 231.006715,168.74784 231.006715,168.078966 L231.006715,166.172686 C231.006715,164.892271 230.593453,163.88181 229.766916,163.141271 C228.94038,162.400732 227.78659,162.030469 226.305513,162.030469 L220.457677,162.030469 Z M220.457677,160.56851 L225.603199,160.56851 C227.485601,160.56851 228.861548,160.188691 229.731084,159.429041 C230.60062,158.669392 231.035381,157.644598 231.035381,156.354627 C231.035381,154.978659 230.603008,153.920421 229.738251,153.179883 C228.873493,152.439344 227.56682,152.069081 225.818193,152.069081 L220.457677,152.069081 L220.457677,160.56851 Z M237.430927,171.461538 L237.430927,150.592788 L243.493757,150.592788 C246.045032,150.592788 248.151952,151.443201 249.814581,153.14405 C251.477209,154.8449 252.308511,157.028262 252.308511,159.694201 L252.308511,162.374459 C252.308511,165.049953 251.477209,167.233315 249.814581,168.924609 C248.151952,170.615904 246.045032,171.461538 243.493757,171.461538 L237.430927,171.461538 Z M239.136546,152.054748 L239.136546,170.013912 L243.493757,170.013912 C245.55771,170.013912 247.256145,169.292495 248.589115,167.849639 C249.922084,166.406784 250.588559,164.581742 250.588559,162.374459 L250.588559,159.651202 C250.588559,157.472585 249.919695,155.661876 248.581948,154.21902 C247.244201,152.776165 245.548154,152.054748 243.493757,152.054748 L239.136546,152.054748 Z" id="path-3"></path>
    </defs>
    <g id="Page-1" stroke="none" stroke-width="1" fill="none" fill-rule="evenodd" sketch:type="MSPage">
        <g id="ZarinCard" sketch:type="MSArtboardGroup" transform="translate(-281.000000, -749.000000)">
            <g id="Card" sketch:type="MSLayerGroup" transform="translate(284.000000, 747.000000)">
                <rect id="Rectangle-116" fill="#6699CC" sketch:type="MSShapeGroup" x="17" y="34" width="400" height="225" rx="9"></rect>
                <rect id="Rectangle-116-Copy" fill="#F6F8FA" filter="url(#filter-1)" sketch:type="MSShapeGroup" transform="translate(217.000000, 146.500000) rotate(-10.000000) translate(-217.000000, -146.500000) " x="17" y="34" width="400" height="225" rx="9"></rect>
                <g id="ZarinCard" filter="url(#filter-2)">
                    <use fill="#FFFEFA" fill-rule="evenodd" sketch:type="MSShapeGroup" transform="translate(217.000000, 147.000000) rotate(-10.000000) translate(-217.000000, -147.000000) " xlink:href="#path-3"></use>
                    <use fill="#6699CC" fill-rule="evenodd" xlink:href="#path-3"></use>
                    <use fill="none" xlink:href="#path-3"></use>
                    <use fill="none" xlink:href="#path-3"></use>
                </g>
            </g>
        </g>
    </g>
</svg>