<svg width="114" height="114" viewBox="0 0 114 114" xmlns="http://www.w3.org/2000/svg"><g fill="none" fill-rule="evenodd"><path d="M97 37v64c0 4.4-3.6 8-8 8H25c-4.4 0-8-3.6-8-8V13c0-4.4 3.6-8 8-8h40l32 32z" fill="#CBD1D3"/><path d="M97 37H73c-4.4 0-8-3.6-8-8V5l32 32z" fill="#A1A8AF"/><path d="M97 37v64c0 4.4-3.6 8-8 8H25c-4.4 0-8-3.6-8-8V13c0-4.4 3.6-8 8-8h40" stroke="#303338" stroke-width="8"/><path d="M74.375 34C70.87 34 68 31.13 68 27.625V8.5L93.5 34H74.375z" stroke="#303338" stroke-width="6.286"/><g stroke="#303338" stroke-width="8"><path d="M45 65l12 12 12-12M57 45v32"/></g><path d="M33 81v8h48v-8" stroke="#303338" stroke-width="8"/></g></svg>