<svg xmlns="http://www.w3.org/2000/svg" width="300" height="300" viewBox="0 0 300 300"><g fill-rule="evenodd" clip-rule="evenodd"><path fill="#ED2424" d="M8.566 109.783h282.867v80.434H8.566z"/><path fill="#FFF" d="M94.374 136.394v-9.574c0-.95.454-1.405 1.408-1.405h4.797c.732.002 1.227.48 1.26 1.216.008.13 0 .257 0 .385v38.195c0 1.25-.19 1.542-1.4 1.853-2.43.624-4.89 1.1-7.398 1.276-1.59.112-3.19.2-4.784.18-2.66-.03-5.21-.59-7.45-2.11-2.504-1.69-3.94-4.126-4.677-7.01-.402-1.572-.57-3.175-.566-4.792.007-2.125-.004-4.255.098-6.377.107-2.204.646-4.32 1.705-6.275 1.648-3.04 4.273-4.75 7.584-5.494 2.094-.47 4.217-.47 6.345-.322 1.002.068 2.003.164 3.076.254zm-.024 25.774v-19.59c-1.46-.334-5.228-.535-6.643-.33-1.79.257-3.12 1.137-3.83 2.86a10.3 10.3 0 0 0-.803 3.72c-.05 2.03-.097 4.062-.02 6.09a17.8 17.8 0 0 0 .51 3.632c.467 1.866 1.557 3.278 3.55 3.674.946.188 1.938.228 2.904.208 1.432-.027 2.863-.17 4.332-.264zm-41.782-7.245c-.577 3.516 2.026 6.943 5.48 7.148 1.89.113 3.8.03 5.698-.05 1.818-.077 3.628-.27 5.444-.41.11-.01.223-.007.335-.008.894 0 1.146.244 1.146 1.13v3.357c0 1.013-.256 1.4-1.245 1.543-2.05.305-4.108.612-6.172.78-1.75.14-3.517.19-5.27.107-4.192-.198-7.826-1.65-10.43-5.104a11.788 11.788 0 0 1-2.4-6.664c-.122-2.917-.205-5.857.015-8.762.326-4.29 2.14-7.856 5.953-10.163 1.77-1.07 3.733-1.56 5.78-1.71 2.575-.188 5.11.003 7.506 1.077 3.654 1.636 5.827 4.5 6.848 8.308.396 1.472.587 2.972.582 4.498-.004 1.12 0 2.238 0 3.358 0 1.25-.31 1.564-1.543 1.564-5.693.003-11.387 0-17.078 0-.21.003-.416.003-.646.003zm-.028-5.35h11.754c.034-1.137-.105-2.222-.478-3.265-.724-2.03-2.07-3.414-4.25-3.765-2.292-.368-4.283.237-5.717 2.172-1.06 1.428-1.283 3.096-1.31 4.86zm189.582 2.713c-.132 1.863-.123 3.747-.428 5.58-.637 3.845-2.44 6.997-5.94 8.988-1.736.99-3.626 1.495-5.606 1.638-2.59.188-5.146 0-7.562-1.058-3.73-1.634-5.87-4.584-6.89-8.44-.408-1.54-.532-3.114-.543-4.696-.01-1.854-.045-3.713.073-5.56.24-3.706 1.414-7.035 4.254-9.593 1.708-1.535 3.73-2.438 5.983-2.82 2.633-.446 5.258-.415 7.825.384 4.216 1.31 6.82 4.203 8.047 8.396.452 1.542.663 3.12.67 4.725.002.816 0 1.63 0 2.446.04.005.076.008.117.01zm-7.488.05c-.032 0-.065-.003-.098-.006 0-.91.003-1.82 0-2.733-.008-1.174-.192-2.318-.603-3.423-1.374-3.677-5.966-5-8.953-2.552-1.483 1.22-2.12 2.923-2.24 4.767-.136 2.1-.106 4.212-.11 6.32 0 .73.067 1.47.2 2.19.457 2.5 1.893 4.97 5.126 5.23 2.242.185 4.324-.523 5.508-2.75.376-.71.715-1.494.818-2.276.21-1.577.246-3.178.352-4.77zm-65.114-3.116c-.093-1.48-.11-2.9-.288-4.3-.164-1.29-1.034-2.063-2.27-2.367a9.08 9.08 0 0 0-2.082-.284 83.89 83.89 0 0 0-9.427.407c-1.117.114-1.406-.315-1.383-1.214.025-1.04.005-2.078.005-3.118 0-.85.288-1.263 1.123-1.405 1.477-.254 2.96-.528 4.45-.646 1.893-.15 3.8-.202 5.698-.21 1.945-.007 3.847.312 5.665 1.033 3.15 1.247 4.976 3.59 5.62 6.866.184.934.26 1.902.26 2.854.024 6.302.015 12.603.015 18.902 0 1.104-.14 1.252-1.212 1.542-3.904 1.057-7.885 1.415-11.91 1.236-2.304-.102-4.577-.4-6.732-1.306-2.92-1.228-4.353-3.516-4.7-6.574a14.537 14.537 0 0 1 .22-4.766c.646-2.953 2.574-4.726 5.346-5.68 2.12-.728 4.33-.94 6.556-.972 1.63-.02 3.258-.002 5.05-.002zm-.086 5c-.104-.035-.133-.056-.16-.056-1.25-.003-2.497-.04-3.742.003-1.037.035-2.075.103-3.095.275-1.28.216-2.256.91-2.423 2.288-.137 1.102-.213 2.237-.104 3.336.155 1.554.923 2.3 2.448 2.588 2.22.416 4.444.387 6.662-.07.34-.073.425-.217.422-.545-.015-2-.008-4-.008-6v-1.822zm103.026 2.332v10.078c-.003 1.078-.354 1.43-1.433 1.43h-4.7c-.896 0-1.3-.41-1.3-1.324-.003-1.407-.003-2.815-.003-4.225 0-5.066.028-10.14-.023-15.207-.01-1.02-.225-2.06-.503-3.05-.375-1.34-1.444-1.932-2.76-1.972a55.49 55.49 0 0 0-4.792.064c-1.146.066-1.938.73-2.364 1.82-.416 1.06-.544 2.166-.544 3.285-.012 6.366-.007 12.73-.007 19.1 0 .222.01.45-.036.667-.105.515-.53.84-1.072.84-1.727.004-3.453.004-5.18.003-.644-.003-1.082-.413-1.142-1.05-.003-.05-.003-.096-.003-.146.003-6.748-.046-13.498.033-20.248.038-3.09 1.084-5.857 3.44-8 1.618-1.473 3.57-2.294 5.717-2.416 2.436-.14 4.894-.16 7.327-.01 4.55.285 8.178 3.58 9.02 8.06.2 1.063.296 2.154.31 3.234.042 3.022.018 6.044.018 9.068zM117.8 136.077c3.136-.08 6.207.39 9.256 1.066.81.18 1.128.578 1.132 1.415.01 1.04.01 2.078 0 3.118-.007.888-.374 1.213-1.258 1.128-1.75-.17-3.492-.407-5.246-.514-1.957-.117-3.924-.317-5.876.048-1.274.237-1.828.887-1.863 2.06-.013.483.133.885.527 1.166.598.428 1.19.866 1.813 1.254 2.7 1.674 5.442 3.283 8.105 5.017 1.002.655 1.907 1.51 2.717 2.398 1.522 1.673 1.876 3.77 1.79 5.945-.09 2.455-1.058 4.52-3.018 6.055-1.24.97-2.665 1.56-4.187 1.925-1.86.442-3.75.472-5.626.34-2.087-.144-4.163-.397-6.238-.646-.71-.085-1.407-.275-2.1-.466-.674-.185-.97-.61-.974-1.304-.007-1.07-.007-2.143.003-3.215.003-.597.393-1.013.99-.984.91.042 1.815.156 2.72.218 1.61.11 3.22.25 4.83.29 1.32.03 2.65-.007 3.967-.12 1.042-.09 1.772-.687 2.017-1.76.24-1.057-.047-1.96-.955-2.562-1.57-1.04-3.168-2.04-4.766-3.038-1.595-1-3.234-1.938-4.802-2.98-2.02-1.342-3.54-3.132-4.044-5.553-.572-2.726-.25-5.326 1.684-7.506 1.214-1.37 2.832-2.083 4.59-2.39 1.58-.276 3.193-.37 4.79-.546.006.048.012.096.016.144zm72.16 5.986v17.684c0 .223.012.447.02.67.062 1.52.64 2.17 2.165 2.236 1.854.08 3.708.075 5.562.097 1.036.012 1.27.236 1.27 1.263.004.96.004 1.922 0 2.88-.002.744-.226 1.07-.97 1.184-1.023.16-2.058.287-3.092.343-1.435.08-2.874.108-4.313.11-1.333 0-2.64-.196-3.9-.655-2.328-.853-3.57-2.61-4.016-4.963-.19-1-.28-2.03-.283-3.045-.02-9.198-.013-18.396-.013-27.594 0-1.095.27-1.4 1.357-1.585 1.573-.27 3.144-.547 4.714-.824.94-.167 1.49.27 1.495 1.228.007 1.583.003 3.166.003 4.75v.61h.574c2.383 0 4.765 0 7.15.002.94 0 1.292.353 1.296 1.308.005.99.005 1.984 0 2.975-.007.888-.432 1.32-1.326 1.323-2.353.007-4.704.004-7.054.004h-.637zm-49.096-5.61h7.775c.87 0 1.23.358 1.23 1.218v3.073c0 .904-.397 1.313-1.316 1.317-2.367.008-4.734.02-7.102-.012-.503-.006-.6.148-.598.62.018 5.838.007 11.676.015 17.516 0 .316.027.64.093.95.196.95.836 1.47 2.047 1.517 1.884.074 3.77.07 5.657.105.19.005.387 0 .568.05.413.108.645.363.64.826-.013 1.12 0 2.24-.004 3.36 0 .62-.21.936-.813 1.06-.623.13-1.26.22-1.893.27-2.343.187-4.688.36-7.036.12-1.447-.147-2.83-.508-4.04-1.36-1.727-1.22-2.372-3.03-2.64-5.016-.097-.71-.105-1.433-.105-2.15-.007-9.278.003-18.556-.02-27.834 0-.983.524-1.254 1.15-1.368a441.99 441.99 0 0 1 4.955-.857c.88-.15 1.423.298 1.434 1.2.012 1.6.002 3.2.003 4.8v.598zm-104.544 6.14v24.082c0 1.037-.344 1.385-1.366 1.385h-4.8c-.77-.003-1.25-.478-1.25-1.252-.004-9.148-.004-18.296-.004-27.444 0-.777.41-1.37 1.302-1.628 1.53-.44 3.07-.865 4.63-1.17 2.363-.455 4.76-.535 7.162-.492.27.006.542.042.8.11.432.116.683.412.686.87.004 1.376.02 2.75-.007 4.126-.013.682-.463 1.026-1.285 1.056-1.1.04-2.203.045-3.303.106-.843.048-1.68.163-2.566.252zm173.82 9.654v14.3c0 1.088-.422 1.512-1.497 1.512h-4.657c-.795 0-1.274-.46-1.313-1.264-.01-.11-.003-.223-.003-.337v-28.506c0-.16-.006-.322.015-.48.094-.647.516-1.02 1.173-1.02 1.698-.003 3.392-.003 5.09.002.73 0 1.18.453 1.19 1.2.01.85.003 1.697.003 2.546v12.044zm-3.708-19.99c-.895 0-1.79.003-2.684 0-.766-.006-1.22-.45-1.223-1.22-.006-1.564-.01-3.13 0-4.695.004-.73.505-1.21 1.246-1.213 1.76-.006 3.517-.005 5.273 0 .708 0 1.247.466 1.257 1.16.02 1.6.02 3.194 0 4.792-.01.733-.502 1.17-1.232 1.172-.88.004-1.758 0-2.636 0z"/></g></svg>