<svg id="Layer_1" xmlns="http://www.w3.org/2000/svg" viewBox="-270 148.3 300 300"><style>.st0{fill:#58595b}.st1{fill:#FFF}.st2{fill:#f48320}</style><path class="st0" d="M-2.1 284.1h-26.5v-20.2h-31.5v20.2h-29.5l.1 3.9c0 .1.2 8.4.2 15.1 0 2.1-1.2 4.1-2.5 5.5l-9.1-18.1 19.2-30.9 3.6-5.7H-104.8l-1.1 1.8-6.9 11.1-1.3-2.6-1-2.1H-145.3l2.7 5.4 8.7 17.4h-62.6l2.9 5.5 3.4 6.5-1.5 2.4-16.5 26.3c-1.5-1.5-2.9-3.5-2.9-5.8 0-6.8.2-31.6.2-31.9v-3.8h-30.6v37.8c0 7.5 10.2 13.1 15.2 13.1H-187.5l1.1-1.8 9.3-14.9H-107.5c-3.2 2.1-5.3 5.7-5.3 9.7 0 6.4 5.2 11.6 11.6 11.6 3 0 5.8-1.1 7.8-3 2.1 1.9 4.8 3 7.8 3 6.4 0 11.6-5.2 11.6-11.6 0-4.1-2.1-7.7-5.3-9.7h4.6c4 0 11.2-3.6 14.1-8.8v8.8h29.3c-3.2 2.1-5.3 5.7-5.3 9.7 0 6.4 5.2 11.6 11.6 11.6s11.6-5.2 11.6-11.6c0-4.1-2.1-7.7-5.3-9.7h4.6c5.1 0 15.2-5.7 15.2-13.1V284h-3.2zm-90.8 35.4c-.5-.4-1-.8-1.5-1.1h3c-.5.3-1 .7-1.5 1.1z"/><path class="st1" d="M-85.6 287.8h23v17.4c0 4.9-8.2 9.4-11.5 9.4h-18.8s7.5-4.6 7.5-11.5-.2-15.3-.2-15.3zM-25.1 287.8s.2 8.3.2 15.2c0 6.2-6.3 10.6-7.5 11.4v-46.7h-23.9v46.9h42.7c3.3 0 11.5-4.5 11.5-9.4v-17.4h-23zM-156.8 314.6h-19.7l-13.6-26h19.7zM-136 314.6h-19.3l-13.6-26h19.3zM-187 298.8l-20.1 32.3c-1.1-.7-7.6-5.1-7.6-11.4 0-6.9.2-31.9.2-31.9h-23v34c0 4.9 8.2 9.4 11.5 9.4h36.7l10.5-17-8.2-15.4z"/><circle class="st1" cx="-24.5" cy="328.1" r="7.9"/><path class="st1" d="M-85 320.2c-4.3 0-7.7 3.4-7.8 7.6-.1-4.2-3.6-7.6-7.8-7.6-4.3 0-7.9 3.5-7.9 7.9s3.5 7.9 7.9 7.9c4.3 0 7.7-3.4 7.8-7.6.1 4.2 3.6 7.6 7.8 7.6 4.3 0 7.9-3.5 7.9-7.9s-3.6-7.9-7.9-7.9zM-84.7 257.6h-17.8l-8.5 13.6 7.9 15.8z"/><path class="st2" d="M-92.9 314.6h-21.8l-24.4-48.8h21.8z"/><path class="st1" d="M-125.7 296.8l-4.2-8.2h-18l12.1 23.1zM-116.8 313.8l-8.1-15.5-10.2 15 .7 1.3h18z"/></svg>