<svg id="Layer_2" xmlns="http://www.w3.org/2000/svg" viewBox="-270 148.3 300 300"><style>.st0{fill:#2b3584}.st1{fill:#f17523}</style><path class="st0" d="M-53.9 260.9h49.4s-54.3 71-113.1 68.3c-35.9-3.1-46.8-35.6-46.8-35.6s21.7 18.7 43.8 17.7c45.1-2.2 66.7-50.4 66.7-50.4zM-196.5 260.9h-49.4s54.3-71 113.1-68.3c35.9 3.1 46.8 35.6 46.8 35.6s-21.7-18.7-43.8-17.7c-45.1 2.2-66.7 50.4-66.7 50.4z"/><path class="st0" d="M-124.6 218.6c-35.7 0-64.6 42.3-64.6 42.3s28.9 42.3 64.6 42.3c35.7 0 64.6-42.3 64.6-42.3s-28.9-42.3-64.6-42.3zm.2 78.5c-19.1 0-34.5-16-34.5-35.8 0-19.8 15.5-35.8 34.5-35.8 19.1 0 34.5 16 34.5 35.8.1 19.8-15.4 35.8-34.5 35.8z"/><path class="st1" d="M-110.2 271.7h17c-1.5 9.4-5.7 13.2-10.8 16.7-5.1 3.5-11.6 5.3-19.5 5.3-10 0-17.8-2.8-23.7-8.5-5.8-5.6-8.7-13.5-8.7-23.7 0-10.5 2.9-18.7 8.8-24.5 5.9-5.8 13.5-8.7 22.9-8.7 9.1 0 16.5 2.8 22.3 8.5 5.8 5.7 8.7 13.7 8.7 24 0 .6 0 3.2-.1 4.5h-48.6c.4 6.9 4.8 14.5 15.3 14.5s14.7-3.6 16.4-8.1zm-29.6-14.5h30.9c-.4-4.3-1.6-7.5-3.5-9.6-3-3.3-6.9-5-11.6-5-4.3 0-7.9 1.3-10.9 4-3 2.6-4.6 6.1-4.9 10.6z"/><path class="st0" d="M-247.2 392c0 2.9-.9 5-2.7 6.1-1.5 1-3.7 1.5-6.8 1.5-2.3 0-4.1-.6-5.2-1.9-.9-1-1.4-2.3-1.4-3.9 0-.8.2-2 .7-3.5.6-1.8 1.1-2.7 1.7-2.7.4 0 .6.3.6.8 0 .2-.2.7-.5 1.6-.3.9-.5 1.6-.5 2.1 0 1.4.6 2.4 1.7 3 .8.4 2.1.6 3.7.6 1.5 0 2.9-.2 4.1-.5 1.9-.5 2.8-1.3 2.8-2.4 0-.6-.4-1.5-1.2-2.7-.7-1.1-1.3-1.9-1.9-2.4l1.6-3.3c.1-.2.2-.2.4 0 2 2.8 2.9 5.2 2.9 7.6zm-6.2-9.5l-2.1 2.1-2.1-2.1 2.1-2 2.1 2zM-237.9 391.4h-1.8c-1 0-1.9-.3-2.6-1-.9-.9-1.4-2.2-1.4-4.1 0-1.2-.1-3.1-.2-5.6-.2-2.8-.3-4.7-.5-5.5-.1-.3 0-.5.1-.6l2.5-2c.3-.2.5-.4.5-.4.1 0 .1.2.1.4v12.8c0 1.4.8 2.2 2.4 2.2h.9v3.8z"/><path class="st0" d="M-227.1 391.4h-1.4c-.8 0-1.5-.2-2.3-.6-.7-.4-1.3-1-1.7-1.6-.9 1.5-2.2 2.2-3.9 2.2h-2.4v-3.9h1.8c1.5 0 2.5-.3 3.1-1 .3-.3.5-.9.7-1.8.1-.7.4-1 .7-1 .4 0 .6.3.7 1 .2.9.3 1.5.6 1.8.5.7 1.3 1 2.5 1h1.6v3.9zm-6.4 4.6l-1.8 1.9-1.9-1.9 1.9-1.8 1.8 1.8zm4.1 0l-1.8 1.9-1.9-1.9 1.9-1.8 1.8 1.8z"/><path class="st0" d="M-209 385.6c0 1.4-.3 2.7-.8 3.7-.7 1.4-1.7 2-3.1 2-1.3 0-2.3-.7-3.1-2.1-.8 1.4-1.8 2.1-3 2.1-1.3 0-2.3-.7-3.1-2.1-.8 1.4-2 2.1-3.7 2.1h-2.1v-3.9h2.5c.9 0 1.5-.3 1.9-.9.2-.2.3-.8.5-1.7.2-.6.4-.9.7-.9.4 0 .6.3.8.9.2 1 .4 1.5.5 1.7.3.6.9.9 1.8.9s1.5-.3 1.8-.9c.1-.2.3-.8.5-1.7.2-.6.4-.9.8-.9.3 0 .6.3.7.9.2 1 .3 1.5.5 1.7.4.6 1 .9 1.9.9 1.3 0 1.9-.4 1.9-1.3 0-.4-.4-1.2-1.3-2.3l1.4-2.1c.2-.3.3-.4.3-.4.1 0 .2.1.3.3.3.3.5.8.8 1.5.4 1 .6 1.8.6 2.5zM-197.3 390.4c0 2.9-1 5.3-2.9 7.3-.6.6-1 .9-1.1.9-2.7 0-4.7-.3-6-.8-.3-.1-.3-.2 0-.3 1.9-.7 3.6-1.6 5.3-2.9 1.9-1.5 2.8-2.8 2.8-3.9 0-.5-.3-1.2-1-2-.6-.7-1.1-1.3-1.7-1.7l1.5-3.1c.1-.2.2-.2.4-.1 1.7 1.9 2.7 4.1 2.7 6.6zM-188.1 391.4h-1.8c-1 0-1.9-.3-2.6-1-.9-.9-1.4-2.2-1.4-4.1 0-1.2-.1-3.1-.2-5.6-.2-2.8-.3-4.7-.5-5.5-.1-.3 0-.5.1-.6l2.5-2c.3-.2.5-.4.5-.4.1 0 .1.2.1.4v12.8c0 1.4.8 2.2 2.4 2.2h.9v3.8z"/><path class="st0" d="M-182.9 385.5c0 1.5-.3 2.8-.9 3.8-.8 1.4-2 2.1-3.6 2.1h-1.5v-3.9h1.7c1.5 0 2.2-.3 2.2-.8s-.6-1.3-1.7-2.6c-.1-.1-.1-.3 0-.5l1.8-2.5c.2-.2.3-.2.5-.1.5.5.8 1.2 1.1 2.1.2.9.4 1.7.4 2.4zm-1.5 9.4l-1.9 1.8-1.9-1.9 1.9-1.9 1.9 2zm2.1 3.1l-1.9 1.9-1.9-1.8 1.9-1.9 1.9 1.8zm2-3.1l-1.9 1.8-1.9-1.9 1.9-1.9 1.9 2zM-142.6 391.4h-2.3c-1 0-2-.5-3.1-1.4-.6-.5-1.7-1.7-3.3-3.5-.1 1.6-.8 2.9-2.1 3.9-.5.4-1.8.7-3.8.9-1.7.2-3.3.3-4.8.3-2.8 0-4.8-.3-6.1-.8-1.9-.8-2.8-2.4-2.8-4.8 0-1 .3-2 .8-2.9.5-.9.9-1.3 1.2-1.3.4 0 .6.2.6.6 0 .2-.1.5-.2.9-.2.5-.2.8-.2 1.1 0 1.6.8 2.6 2.3 3 .7.2 2.5.3 5.3.3 3.4 0 5.7-.1 6.9-.4.9-.2 1.4-.6 1.4-1.1 0-.7-.6-1.7-1.9-3-1.1-1.3-2.2-2.2-3.2-2.8l.7-3.9c4.2-1.7 8.1-3.1 11.5-4.2l-.8 3.5c-1.8.6-4.6 1.5-8.6 2.9 1.6 1.5 3.2 3.2 5 5.1 1.4 1.5 2.3 2.4 2.8 2.8.7.6 1.5.9 2.3.9h2.3v3.9z"/><path class="st0" d="M-131.7 391.4h-1.4c-.8 0-1.5-.2-2.3-.6-.7-.4-1.3-1-1.7-1.6-.9 1.5-2.2 2.2-3.9 2.2h-2.4v-3.9h1.8c1.5 0 2.5-.3 3.1-1 .3-.3.5-.9.7-1.8.1-.7.4-1 .7-1 .4 0 .6.3.7 1 .2.9.3 1.5.6 1.8.5.7 1.3 1 2.5 1h1.6v3.9zm-6.5 4.6l-1.8 1.9-1.9-1.9 1.9-1.8 1.8 1.8zm4.2 0l-1.8 1.9-1.9-1.9 1.9-1.8 1.8 1.8z"/><path class="st0" d="M-126.6 385.5c0 1.5-.3 2.8-.9 3.8-.8 1.4-2 2.1-3.6 2.1h-1.5v-3.9h1.7c1.5 0 2.2-.3 2.2-.8s-.6-1.3-1.7-2.6c-.1-.1-.1-.3 0-.5l1.8-2.5c.2-.2.3-.2.5-.1.5.5.8 1.2 1.1 2.1.3.9.4 1.7.4 2.4zm-.1-9l-2 2.1-2.1-2.1 2.1-2.1 2 2.1zM-114.7 390.9c0 2.6-.9 4.9-2.7 6.8-.6.6-.9.9-1.1.9-2.5 0-4.6-.3-6-.8-.3-.1-.3-.2 0-.3 1.8-.6 3.5-1.6 5.3-3 1.9-1.5 2.8-2.7 2.8-3.7h-2c-1.4 0-2.4-.2-3-.5-.8-.4-1.3-1.2-1.3-2.4 0-1.1.3-2.3 1-3.7.8-1.7 1.8-2.5 2.9-2.5 1.4 0 2.5.8 3.2 2.4.6 1.3.9 2.7.9 4.2v2.6zm-2.4-3.9c-.3-.7-.7-1.2-1.3-1.6-.4-.3-.8-.4-1.2-.4-.3 0-.6.1-.9.3-.3.2-.4.5-.4.8 0 .7.6 1.1 1.7 1.1.6 0 1.3-.1 2.1-.2zM-100.2 391.4h-.7c-1 0-1.7-.1-2.3-.4 0 3.1-.9 5.5-2.8 7.3-.6.5-.9.8-1.1.8-2.7 0-4.7-.3-6-.8-.3-.1-.3-.2 0-.3 1.8-.7 3.6-1.7 5.3-3 1.9-1.4 2.9-2.7 2.9-3.7 0-.5-.3-1.2-1-2-.5-.6-1.1-1.2-1.7-1.7l1.6-3.2c.1-.2.2-.2.3 0 1.5 2.1 2.9 3.1 4.2 3.1h1.3v3.9z"/><path class="st0" d="M-89.4 391.4h-1.4c-.8 0-1.5-.2-2.3-.6-.7-.4-1.3-1-1.7-1.6-.9 1.5-2.2 2.2-3.9 2.2h-2.4v-3.9h1.8c1.5 0 2.5-.3 3.1-1 .3-.3.5-.9.7-1.8.1-.7.4-1 .7-1 .4 0 .6.3.7 1 .2.9.3 1.5.6 1.8.5.7 1.3 1 2.5 1h1.6v3.9zm-6.5-11.9l-1.9 1.9-1.9-1.9 1.9-1.9 1.9 1.9zm4.2 0l-1.9 1.9-1.8-1.9 1.9-1.9 1.8 1.9z"/><path class="st0" d="M-73 391.4h-2.7c-1 0-2-.5-3.1-1.4-.6-.5-1.7-1.7-3.3-3.5-.2 3.2-2 4.8-5.7 4.8h-2.4v-3.9h1.9c3 0 4.5-.4 4.5-1.1 0-.7-.6-1.8-1.9-3.1-1.1-1.2-2.1-2.1-3.2-2.7l.7-3.9c4.2-1.7 8.1-3.1 11.5-4.2l-.8 3.5c-1.8.6-4.6 1.5-8.6 2.9 1.6 1.5 3.2 3.2 5 5.1 1.4 1.5 2.3 2.4 2.8 2.8.7.6 1.5.9 2.3.9h2.8v3.8z"/><path class="st0" d="M-68 376.5c0 .1.1.2.1.3 0 0-.1.1-.2.1-.2 0-.5 0-.9-.1.2 3.4.3 6.9.3 10.3 0 1.3-.3 2.3-1 3.1-.7.9-1.7 1.4-2.9 1.4h-1.1v-3.9h1c.8 0 1.3-.2 1.6-.5.2-.2.3-.7.2-1.3-.1-1.4-.3-3.3-.6-5.7-.3-2.6-.6-4.4-.8-5.2l2.5-2.5c.1-.1.3-.1.3.1.3.7.7 2.1 1.5 3.9zM-62 388c0 .7-.4 1.9-1.2 3.5-.2.4-.3.6-.4.6-.1 0-.2-.5-.3-1.4l-1.4-16 2.8-2.3c.2-.2.3-.2.4-.2.1 0 .2.1.2.3V388zM-31.9 385.3c0 2.2-.7 3.8-2.2 4.7-1.6 1.1-4.8 1.6-9.7 1.6-2.6 0-4.6-.3-5.9-.9-2-.9-3-2.4-3-4.7 0-1 .3-2 .8-2.9.5-.9.9-1.3 1.2-1.3.4 0 .6.2.6.6 0 .2-.1.5-.2.9-.2.5-.2.8-.2 1.1 0 1.6.9 2.6 2.7 3 .8.2 2.4.3 5 .3 5.9 0 8.9-.5 8.9-1.5 0-.2-.3-.6-.8-1.3-.4-.6-.8-1-1-1.2l2-2.5.2-.2c.1 0 .1 0 .2.2.9 1.4 1.4 2.7 1.4 4.1zm-10.9-5.8l-1.9 1.9-1.9-1.9 1.9-1.9 1.9 1.9zm4.2 0l-1.9 1.9-1.9-1.9 1.9-1.9 1.9 1.9zM-20.2 390.4c0 2.9-1 5.3-2.9 7.3-.6.6-1 .9-1.1.9-2.7 0-4.7-.3-6-.8-.3-.1-.3-.2 0-.3 1.9-.7 3.6-1.6 5.3-2.9 1.9-1.5 2.8-2.8 2.8-3.9 0-.5-.3-1.2-1-2-.6-.7-1.1-1.3-1.7-1.7l1.5-3.1c.1-.2.2-.2.4-.1 1.8 1.9 2.7 4.1 2.7 6.6zM-11 391.4h-1.8c-1 0-1.9-.3-2.6-1-.9-.9-1.4-2.2-1.4-4.1 0-1.2-.1-3.1-.2-5.6-.2-2.8-.3-4.7-.5-5.5-.1-.3 0-.5.1-.6l2.5-2c.3-.2.5-.4.5-.4.1 0 .1.2.1.4v12.8c0 1.4.8 2.2 2.4 2.2h.9v3.8z"/><path class="st0" d="M7.7 391.4h-3c-3.3 0-5-1.6-5-4.7-3.4 3.1-6.8 4.7-10.3 4.7h-1.2v-3.9h1.6c1.8 0 3.4-.2 4.7-.7.9-.3 2.3-1.1 4.3-2.2-2.4-.8-4.1-1.2-5.2-1.2-.5 0-1.1.3-1.8.9-.6.6-1 .9-1 .9-.4 0-.6-.2-.6-.5 0-.4.1-.7.3-1.1 1.2-2.4 2.5-3.5 4.1-3.5.8 0 2.3.4 4.5 1.1 2.2.7 3.9 1.1 5.2 1.1.8 0 1.2 0 1.2.1 0 0 0 .1-.1.2l-1.3 2.8c-1.1 0-2.1.2-2.8.5 0 .8.4 1.3 1.3 1.6.5.1 1.3.2 2.3.2h2.7v3.7zm-8.1 4.1l-2.1 2.1-2-2.1 2-2.1 2.1 2.1z"/><path class="st0" d="M12.9 385.5c0 1.5-.3 2.8-.9 3.8-.8 1.4-2 2.1-3.6 2.1H6.9v-3.9h1.7c1.5 0 2.2-.3 2.2-.8s-.6-1.3-1.7-2.6c-.1-.1-.1-.3 0-.5l1.8-2.5c.2-.2.3-.2.5-.1.5.5.8 1.2 1.1 2.1.3.9.4 1.7.4 2.4zm-1.5-8.8l-1.9 1.9-1.9-1.9 1.9-1.9 1.9 1.9zm4.1 0l-1.9 1.9-1.8-1.9 1.9-1.9 1.8 1.9z"/></svg>