<svg xmlns="http://www.w3.org/2000/svg" width="300" height="300" viewBox="0 0 300 300"><path fill="#E12426" d="M6.38 62.145s29.13 25.407 68.597 26.253c.846 21.512 8.524 51.83 12.477 57.08-47.37-18.8-72.098-59.112-81.074-83.333zm285.905 0s-29.133 25.407-68.598 26.253c-.847 21.512-8.522 51.83-12.477 57.08 47.373-18.8 72.1-59.112 81.075-83.333zm-77.275 26.63c-8.326-5.48-40.602-17.32-65.74-17.32s-57.415 11.838-65.74 17.32c-4.827 39.172 25.492 93.036 65.74 111.963 52.91-28.33 68.406-82.19 65.74-111.963zm-65.207 93.036c-26.36-12.194-49.352-54.75-50.496-81.302 6.394-3.98 31.187-12.576 50.496-12.576 19.308 0 44.1 8.597 50.497 12.576-1.146 26.55-24.137 69.105-50.497 81.303z"/><path fill="#E12426" d="M154.92 103.855h18.86v32.24c0 2.98-.466 5.792-1.394 8.438a18.248 18.248 0 0 1-4.367 6.94c-1.985 1.983-4.065 3.374-6.243 4.177-3.027 1.12-6.66 1.685-10.9 1.685-2.454 0-5.13-.17-8.03-.517-2.9-.344-5.325-1.023-7.27-2.045-1.95-1.02-3.733-2.467-5.35-4.346-1.615-1.878-2.722-3.814-3.317-5.808-.963-3.21-1.444-6.05-1.444-8.525v-32.24h18.915v30.75c0 2.748.866 6.553 5.26 6.553 4.397 0 5.284-3.76 5.284-6.555v-30.75l-.004.002zM66.4 244.467h-9.154l.153-1.738c-1.2 1.416-3.018 2.128-5.452 2.128-2.4 0-4.08-.52-5.04-1.562-.823-.898-1.234-2.414-1.234-4.544v-15.154h9v14.904c0 1.065.035 1.77.1 2.114.07.344.48.514 1.235.514.65 0 1.045-.14 1.182-.425s.206-1.02.206-2.203v-14.904h9v20.87h.002zm23.96-5.608c0 2.318-.6 3.95-1.8 4.896-.923.73-2.332 1.1-4.215 1.1-2.194 0-4.097-.72-5.708-2.167v4.756h-9v-23.85h9v1.846c1.646-1.488 3.582-2.234 5.812-2.234 1.61 0 2.913.317 3.907.957 1.337.853 2.004 2.236 2.004 4.152v10.542zm-8.998.49V229.32c0-1.018-.06-1.676-.18-1.973-.12-.297-.49-.446-1.106-.446-.583 0-.972.166-1.158.5-.19.33-.283.97-.283 1.918v10.034c0 1.21.48 1.814 1.44 1.814.548 0 .898-.13 1.053-.392.156-.26.234-.736.234-1.423zm21.544 2.526c0 1.92-.377 3.24-1.13 3.975-1.064 1.02-3.12 1.53-6.17 1.53h-4.012v-3.335c.995 0 1.577-.097 1.75-.286.17-.19.257-.746.257-1.668v-18.49h9.307v18.275zm0-19.554H93.6v-3.337h9.307v3.337zm23.604 14.975c0 2.652-.686 4.545-2.057 5.68-1.543 1.258-4.217 1.88-8.022 1.88-3.84 0-6.53-.533-8.07-1.597-1.68-1.157-2.52-3.286-2.52-6.388v-6.068c0-2.63.847-4.55 2.544-5.768 1.698-1.217 4.174-1.83 7.428-1.83 3.772 0 6.5.637 8.178 1.9 1.68 1.265 2.52 3.438 2.52 6.513v2.768h-11.673v4.542c0 .95.078 1.55.23 1.81.157.26.543.39 1.16.39.685 0 1.146-.158 1.386-.477.24-.32.36-.896.36-1.724v-3.195h8.536v1.562zm-9.052-6.28V228.8c0-.63-.085-1.1-.257-1.404-.17-.306-.496-.457-.976-.457-.583 0-.96.12-1.132.368-.17.247-.257.742-.257 1.494v2.217h2.623v-.003zm26.33-.46c-2.126 0-3.6.32-4.423.957-.617.474-.926 1.218-.926 2.236v10.717h-9v-20.87h9l-.36 2.734c1.37-2.078 3.274-3.118 5.708-3.118v7.345zm21.082 7.747c0 2.432-.74 4.133-2.21 5.103-1.478.967-3.858 1.45-7.15 1.45-3.222 0-5.64-.41-7.25-1.24-1.918-.973-2.88-2.556-2.88-4.755v-1.74h7.973v1.348c0 1.188.087 1.926.26 2.218.17.3.58.445 1.232.445.686 0 1.143-.125 1.362-.373.222-.247.335-.94.335-2.075 0-.78-1.9-1.894-5.71-3.335-3.805-1.444-5.706-3.43-5.706-5.964 0-2.365.822-4.022 2.468-4.967 1.405-.807 3.686-1.208 6.838-1.208 3.43 0 5.915.462 7.457 1.385 1.54.92 2.312 2.298 2.312 4.114v1.564h-7.97V228.8c0-.703-.053-1.147-.153-1.335-.206-.353-.624-.526-1.266-.526-.57 0-.96.12-1.16.37-.204.247-.305.715-.305 1.398 0 1.207.954 2.164 2.865 2.873 1.908.706 3.787 1.407 5.634 2.088 2.012 1.087 3.02 2.633 3.02 4.638v-.002zm8.433 6.163h-6.788v-5.18h6.788v5.18zm22.318-8.587c0 3.335-.687 5.64-2.058 6.92-1.475 1.37-4.13 2.06-7.97 2.06-3.567 0-6.12-.595-7.66-1.776-1.646-1.255-2.47-3.406-2.47-6.458v-5.928c0-2.58.822-4.47 2.47-5.68 1.644-1.21 4.164-1.81 7.558-1.81 3.46 0 6.016.644 7.66 1.934 1.646 1.29 2.47 3.402 2.47 6.334h-8.485v-2.393c0-.846-.086-1.417-.257-1.707-.172-.295-.53-.442-1.08-.442-.51 0-.866.13-1.052.39-.19.26-.283.847-.283 1.77v9.275c0 1.062.118 1.786.36 2.177.24.39.647.584 1.23.584s.986-.187 1.21-.566c.222-.377.333-1.112.333-2.202v-2.48h8.026v-.002zm23.037.85c0 2.837-.832 4.903-2.497 6.192-1.66 1.29-4.24 1.935-7.737 1.935-3.876 0-6.575-.597-8.1-1.794-1.526-1.192-2.29-3.307-2.29-6.333v-5.357c0-2.745.72-4.756 2.162-6.033 1.612-1.42 4.232-2.128 7.865-2.128 3.737 0 6.462.674 8.177 2.023 1.614 1.257 2.418 3.146 2.418 5.68v5.816h.002zm-9 2.065v-9.415c0-1.113-.062-1.797-.18-2.058-.118-.26-.49-.39-1.105-.39-.548 0-.91.143-1.08.424-.17.286-.26.96-.26 2.023v9.412c0 .99.077 1.63.233 1.912.154.284.538.425 1.155.425.688 0 1.063-.166 1.13-.496.07-.33.107-.945.108-1.84zm44.073 5.672h-8.743V229.99c0-1.04-.038-1.82-.103-2.326-.072-.508-.517-.766-1.342-.766-.582 0-.975.215-1.18.64-.206.426-.31 1.242-.31 2.45v14.48h-8.742V229.99c0-.994-.05-1.758-.15-2.29-.106-.532-.52-.8-1.235-.8-.652 0-1.075.19-1.263.57-.19.378-.282 1.22-.282 2.52v14.48h-8.743v-20.866h8.743v1.987a6.225 6.225 0 0 1 2.416-1.775c.96-.403 2.092-.602 3.392-.602 2.402 0 4.286.792 5.657 2.38.79-.808 1.627-1.407 2.52-1.795.893-.39 1.955-.583 3.187-.583 2.368 0 4.014.543 4.938 1.632.822.946 1.236 2.545 1.236 4.79v14.832l.004-.003z"/></svg>