<svg width="100" height="100" viewBox="0 0 100 100" xmlns="http://www.w3.org/2000/svg"><g fill="none" fill-rule="evenodd"><path d="M47.203 16.015l-7.18 12.227h14.36l-7.18-12.227zM54.73 28.99l-7.292 12.413H62.02L54.73 28.99zM62.36 42.09l-7.292 12.415h14.58l-7.29-12.414zM70.01 55.06l-7.29 12.416H77.3L70.01 55.06z" fill="#602976"/><path d="M39.558 28.99l-7.29 12.413h14.58L39.56 28.99zM31.87 42.09l-7.29 12.415h14.582l-7.29-12.414zM39.558 55.06l-7.29 12.416h14.58L39.56 55.06z" fill="#CEBCD3"/><path d="M47.143 41.117l-7.29-12.414h14.582l-7.292 12.414z" fill="#602976"/><path d="M47.143 66.918l-7.29-12.413h14.582l-7.292 12.413zM39.558 54.16l-7.29-12.415h14.58L39.56 54.16z" fill="#CEBCD3"/><path d="M31.58 67.476L24.29 55.06h14.58l-7.29 12.416zM62.36 67.476L55.067 55.06h14.58l-7.29 12.416zM54.73 54.16l-7.292-12.415H62.02L54.73 54.16z" fill="#602976"/><g fill="#602976"><path d="M9.25 84.678l3.686-10.37h1.368l3.928 10.37h-1.447l-1.12-3.14h-4.012l-1.054 3.14H9.25zm2.77-4.258h3.253l-1.002-2.872a30.028 30.028 0 0 1-.68-2.15 14.077 14.077 0 0 1-.516 1.98L12.02 80.42zM19.704 84.678v-10.37h1.303l5.04 8.142v-8.14h1.218v10.368h-1.303l-5.04-8.148v8.148h-1.218zM29.896 84.678v-10.37h6.938v1.224h-5.668v3.176h5.308v1.217h-5.308v3.53h5.89v1.223h-7.16zM41.724 84.678v-9.146h-3.162v-1.224h7.606v1.224h-3.174v9.146h-1.27zM49.618 84.678l-2.546-10.37h1.302l1.46 6.798c.157.712.292 1.42.406 2.12.244-1.107.388-1.746.432-1.915l1.826-7.002h1.532l1.374 5.25c.344 1.3.593 2.524.746 3.67.122-.656.28-1.408.478-2.257l1.506-6.662h1.276l-2.63 10.37h-1.225l-2.023-7.9a36.55 36.55 0 0 1-.302-1.217c-.1.477-.194.883-.28 1.217l-2.037 7.9h-1.295zM60.68 79.628c0-1.72.428-3.07 1.283-4.042.855-.974 1.96-1.46 3.312-1.46.886 0 1.685.228 2.396.685.712.458 1.255 1.096 1.628 1.914.373.82.56 1.746.56 2.784 0 1.05-.197 1.992-.59 2.82-.393.832-.948 1.46-1.67 1.886a4.49 4.49 0 0 1-2.33.64c-.902 0-1.71-.235-2.42-.706a4.443 4.443 0 0 1-1.617-1.93 6.237 6.237 0 0 1-.55-2.59zm1.31.02c0 1.25.31 2.235.932 2.954.622.72 1.402 1.078 2.34 1.078.956 0 1.742-.363 2.36-1.09.617-.725.926-1.755.926-3.09 0-.844-.132-1.58-.396-2.21-.264-.63-.65-1.117-1.158-1.464a2.968 2.968 0 0 0-1.712-.52c-.9 0-1.673.334-2.32 1-.65.668-.973 1.782-.973 3.343zM71.985 84.678v-10.37h4.255c.855 0 1.505.094 1.95.28.445.186.8.515 1.067.987.266.472.4.993.4 1.563 0 .736-.22 1.356-.662 1.86-.44.505-1.12.825-2.042.962.336.174.592.347.766.516.37.368.72.828 1.053 1.38l1.67 2.822h-1.598l-1.27-2.158a19.89 19.89 0 0 0-.916-1.43c-.24-.33-.456-.56-.646-.692a1.836 1.836 0 0 0-.58-.276c-.144-.033-.38-.05-.706-.05h-1.473v4.605h-1.27zm1.27-5.793h2.73c.58 0 1.033-.065 1.36-.195.328-.13.576-.337.747-.622.17-.286.255-.595.255-.93 0-.49-.165-.894-.495-1.21-.33-.316-.85-.474-1.56-.474h-3.038v3.43zM82.065 84.678v-10.37h1.27v5.143l4.765-5.14h1.722l-4.026 4.2 4.202 6.168h-1.675l-3.417-5.248-1.57 1.655v3.593h-1.27z"/></g></g></svg>