<svg xmlns="http://www.w3.org/2000/svg" width="300" height="300" viewBox="0 0 300 300"><path fill="none" stroke="#213266" stroke-width="1.908" stroke-miterlimit="10" d="M119.4 109.14a5.407 5.407 0 0 0 5.403 5.406h17.803c37.36 0 57.23-50.788 81.19-50.788h11.328a5.41 5.41 0 0 0 5.406-5.41V30.692c0-2.988-2.42-5.41-5.406-5.41h-11.327c-27.062 0-53.53 50.792-81.19 50.792h-17.804a5.403 5.403 0 0 0-5.404 5.407v27.657z"/><path fill="#213266" d="M189.342 99.623s-21.1 20.88-38.057 20.88H55.26a5.41 5.41 0 0 0-5.41 5.408v23.29a5.406 5.406 0 0 0 5.404 5.405H160.01c20.506 0 29.33-20.89 29.33-20.89V99.624zM250.15 89.923c0 10.656-8.64 19.3-19.296 19.3-10.656 0-19.292-8.644-19.292-19.3 0-10.652 8.636-19.295 19.292-19.295 10.654 0 19.296 8.643 19.296 19.295z"/><path fill="none" stroke="#213266" stroke-width="1.731" stroke-miterlimit="10" d="M98.492 180.89c0 9.673-7.838 17.512-17.5 17.512-9.676 0-17.51-7.842-17.51-17.51 0-9.665 7.834-17.506 17.51-17.506 9.663 0 17.5 7.84 17.5 17.505zM137.657 180.89c0 9.673-7.842 17.512-17.51 17.512-9.665 0-17.506-7.842-17.506-17.51 0-9.665 7.843-17.506 17.506-17.506 9.67 0 17.51 7.84 17.51 17.505zM176.816 180.89c0 9.673-7.836 17.512-17.502 17.512-9.67 0-17.51-7.842-17.51-17.51 0-9.665 7.84-17.506 17.51-17.506 9.666 0 17.502 7.84 17.502 17.505z"/><g fill="#213266"><path d="M32.052 241.49c-2.544 0-4.266-.43-5.162-1.29-1.066.86-2.103 1.29-3.108 1.29H6.77c-1.37 0-2.497-.552-3.38-1.654-.837-1.04-1.255-2.248-1.255-3.617v-4.945h3.217v4.472c0 .896.185 1.536.555 1.918.37.382 1.014.573 1.936.573h14.994c.45 0 .82-.046 1.118-.137.297-.09.537-.235.718-.436.18-.2.31-.458.382-.772a5.15 5.15 0 0 0 .11-1.146v-4.47h3.324v4.47c0 1.66 1.186 2.49 3.562 2.49v3.253zm-17.63-15.54a1.8 1.8 0 0 1-.154.745c-.103.23-.245.43-.427.6a2.137 2.137 0 0 1-1.437.545c-1.515 0-2.27-.628-2.27-1.89 0-1.186.684-1.78 2.053-1.78 1.49-.003 2.236.593 2.236 1.78zm6.287 0c0 .533-.208.98-.62 1.346-.412.363-.908.544-1.49.544-1.515 0-2.272-.63-2.272-1.89 0-1.188.702-1.78 2.107-1.78 1.518-.003 2.274.593 2.274 1.78z"/><path d="M42.975 241.49h-.982c-2.132 0-3.698-.43-4.698-1.29-.748.666-1.436 1.06-2.063 1.18-.412.073-1.836.11-4.27.11v-3.255h2.27c1.03 0 1.71-.283 2.036-.854.242-.35.364-1.113.364-2.29v-14.357h3.253v15.014c0 .58.09 1.05.273 1.408.183.357.437.608.764.754.364.133 1.382.24 3.054.326v3.254z"/><path d="M56.66 235.42c0 1.842-.466 3.35-1.398 4.525-1.03 1.345-2.442 2.017-4.235 2.017-.69 0-1.344-.107-1.962-.326a6.148 6.148 0 0 1-1.71-.927c-1.065.447-2.883.707-5.452.78v-3.253c1.818 0 2.884-.175 3.2-.527v.02c.023-.06.05-.31.082-.747.03-.435.058-1.023.083-1.762.097-2.132.636-3.78 1.617-4.943.982-1.163 2.405-1.743 4.27-1.743 1.782 0 3.188.714 4.218 2.144.857 1.258 1.288 2.838 1.288 4.74zm-2.89-.2c0-2.352-.914-3.526-2.744-3.526-1.867 0-2.798 1.21-2.798 3.635 0 2.252.933 3.38 2.798 3.38 1.83-.002 2.745-1.164 2.745-3.49zM97.428 241.49c-2.544 0-4.266-.43-5.16-1.29-1.068.86-2.104 1.29-3.11 1.29H72.147c-1.37 0-2.496-.552-3.38-1.654-.836-1.04-1.254-2.248-1.254-3.617v-4.945h3.218v4.472c0 .896.185 1.536.555 1.918.37.382 1.014.573 1.936.573h14.995c.45 0 .82-.046 1.118-.137.296-.09.536-.235.718-.436.182-.2.31-.458.383-.772a5.15 5.15 0 0 0 .11-1.146v-4.47h3.325v4.47c0 1.66 1.187 2.49 3.562 2.49l-.002 3.253zm-17.63-15.54a1.816 1.816 0 0 1-.582 1.346c-.182.17-.397.302-.646.4s-.512.145-.79.145c-1.517 0-2.273-.628-2.273-1.89 0-1.186.685-1.78 2.054-1.78 1.493-.003 2.238.593 2.238 1.78zm6.29 0c0 .533-.208.98-.62 1.346-.412.363-.908.544-1.49.544-1.514 0-2.27-.63-2.27-1.89 0-1.188.7-1.78 2.106-1.78 1.515-.003 2.273.593 2.273 1.78z"/><path d="M107.644 239.437a14.683 14.683 0 0 1-5.507 1.817c-.497.086-1.23.147-2.2.183-.97.036-2.168.055-3.6.055v-3.254c2.11 0 3.894-.104 5.354-.31 1.46-.205 2.615-.51 3.464-.907h-.02c-.023 0 .085-.064.327-.19s.564-.294.965-.5c.157-.085.33-.176.518-.273.188-.097.385-.2.59-.31h-.018c.28-.17.618-.36 1.017-.572.4-.212.85-.457 1.346-.735l.763-.42c.268-.145.54-.295.818-.452a3.093 3.093 0 0 0-.846-1.046 3.31 3.31 0 0 0-1.245-.61c-.424-.096-1.357-.145-2.798-.145l-5.745-.07-.435-3.163h7.997c4.398 0 6.598 2.23 6.598 6.688l-7.34 4.215zm1.143-16.687c0 .644-.217 1.18-.653 1.617-.437.438-.97.654-1.6.654-1.685 0-2.527-.755-2.527-2.27 0-1.283.8-1.927 2.4-1.927 1.586 0 2.38.644 2.38 1.927zM122.42 241.49h-3.163v-20.756h3.162v20.755zM140.83 237.254c0 1.32-.473 2.363-1.417 3.128-.92.737-2.036 1.107-3.344 1.107h-10.035l-.49-3.255h10.27c1.174 0 1.762-.424 1.762-1.27 0-.206-.042-.406-.128-.6a2.218 2.218 0 0 0-.346-.547c-1.2-1.27-2.417-2.558-3.653-3.86-1.236-1.304-2.453-2.592-3.652-3.863l2.253-2.236 7.27 7.687c.498.522.873 1.09 1.128 1.71a5.17 5.17 0 0 1 .382 1.997zM157.243 241.49c-1.576 0-2.715-.504-3.416-1.51-.015 2.69-.698 4.94-2.055 6.743-1.442 1.953-3.502 2.928-6.18 2.928h-4.18l-.545-3.27h4.544c.655 0 1.28-.112 1.872-.336a5.71 5.71 0 0 0 1.636-.955c.496-.46.885-.98 1.162-1.556.28-.575.42-1.185.42-1.825v-10.434h3.286v4.67c0 1.43 1.152 2.193 3.455 2.29v3.253h.003z"/><path d="M160.278 246.543c0 1.188-.686 1.78-2.055 1.78-1.563 0-2.344-.593-2.344-1.78 0-.292.054-.56.162-.8a1.954 1.954 0 0 1 1.11-1.033c.254-.1.526-.147.817-.147 1.54 0 2.308.66 2.308 1.98zm7.47-10.324c0 .703-.112 1.36-.337 1.972a5.36 5.36 0 0 1-.953 1.645c-.424.535-.92.943-1.49 1.228a4.06 4.06 0 0 1-1.836.426h-6.977v-3.25h5.942c.873 0 1.48-.192 1.818-.574.34-.382.508-1.02.508-1.918v-4.472h3.327v4.943zm-4.47 14.903c0 1.163-.698 1.744-2.092 1.744-1.526 0-2.29-.58-2.29-1.744 0-1.334.665-1.998 2-1.998.652 0 1.205.15 1.652.452.487.412.73.927.73 1.546zm3.198-4.58c0 1.188-.703 1.78-2.108 1.78-1.515 0-2.27-.593-2.27-1.78 0-.57.2-1.05.6-1.436a2.14 2.14 0 0 1 1.436-.546c1.56.002 2.342.662 2.342 1.983zM189.958 238.235v3.236h-.637c-1.356 0-2.386-.187-3.09-.562-.133-.097-.465-.385-1-.864s-1.29-1.173-2.27-2.08c-1.248 2.605-3.235 3.907-5.96 3.907-1.795 0-3.273-.58-4.438-1.742-1.163-1.164-1.743-2.654-1.743-4.473 0-.448.09-.933.27-1.453a9.25 9.25 0 0 1 .764-1.617c.328-.557.725-1.128 1.19-1.708.467-.582.978-1.163 1.536-1.745-.146-.17-.297-.342-.454-.52-.158-.174-.31-.347-.454-.517l2.163-2.236 9.777 10.305c.8.885 1.315 1.406 1.547 1.563h-.02c.472.244 1.198.413 2.18.51h.637v-.003zm-9.852-2.36c0-.776-.2-1.353-.6-1.73l-2.6-2.598c-.447.45-.838.84-1.172 1.173-.333.333-.566.58-.7.736-.618.825-.926 1.63-.926 2.418 0 .813.284 1.49.854 2.036.57.534 1.262.8 2.072.8.388 0 .766-.073 1.137-.218.37-.146.708-.352 1.01-.62.618-.58.926-1.247.926-1.997z"/><path d="M199.228 236.22c0 1.368-.43 2.575-1.29 3.616-.874 1.103-2.006 1.653-3.4 1.653h-5.27v-3.253c3.393 0 5.27-.073 5.634-.22.702-.24 1.055-1.217 1.055-2.926v-.472c0-.18-.007-.394-.02-.635 0-.11-.003-.225-.01-.346-.005-.12-.01-.25-.01-.382-.012-.364-.018-.736-.018-1.118v-.864h3.325v4.944h.003zm-2.963 10.267c0 .618-.22 1.146-.655 1.582-.207.204-.45.364-.728.48a2.343 2.343 0 0 1-.89.173c-1.648 0-2.472-.745-2.472-2.236 0-1.296.775-1.945 2.328-1.945 1.61 0 2.417.65 2.417 1.945zM239.995 241.49c-2.545 0-4.266-.43-5.162-1.29-1.066.86-2.103 1.29-3.11 1.29h-17.01c-1.37 0-2.497-.552-3.38-1.654-.836-1.04-1.255-2.248-1.255-3.617v-4.945h3.218v4.472c0 .896.184 1.536.553 1.918s1.015.573 1.936.573h14.994c.45 0 .822-.046 1.117-.137.298-.09.537-.235.72-.436.18-.2.31-.458.38-.772s.11-.697.11-1.146v-4.47h3.324v4.47c0 1.66 1.19 2.49 3.564 2.49v3.253zm-17.63-15.54a1.828 1.828 0 0 1-.58 1.346 2.02 2.02 0 0 1-.647.4c-.25.097-.513.145-.792.145-1.514 0-2.27-.628-2.27-1.89 0-1.186.683-1.78 2.052-1.78 1.492-.003 2.237.593 2.237 1.78zm6.288 0c0 .533-.206.98-.617 1.346-.412.363-.91.544-1.492.544-1.515 0-2.27-.63-2.27-1.89 0-1.188.702-1.78 2.107-1.78 1.516-.003 2.273.593 2.273 1.78z"/><path d="M253.936 237.056c0 2.956-1.66 4.434-4.98 4.434h-10.05v-3.252h10.05c.86 0 1.29-.515 1.29-1.546 0-.425-.14-.774-.417-1.053l-8.398-8.87-.49-3.618 11.868-4.29.437 3.236-8.306 3.146a3668.12 3668.12 0 0 0 3.31 3.688c1.15 1.284 2.253 2.515 3.308 3.69a23.112 23.112 0 0 1 1.762 2.51c.41.7.616 1.343.616 1.924zM270.33 241.49c-1.575 0-2.715-.504-3.417-1.51-.012 2.69-.698 4.94-2.053 6.743-1.442 1.953-3.502 2.928-6.18 2.928h-4.182l-.544-3.27h4.542c.656 0 1.278-.112 1.872-.336a5.743 5.743 0 0 0 1.637-.955c.496-.46.884-.98 1.163-1.556s.417-1.185.417-1.825v-10.434h3.29v4.67c0 1.43 1.15 2.193 3.453 2.29l.002 3.253z"/><path d="M297.865 235.855c0 .884-.15 1.673-.454 2.363a4.912 4.912 0 0 1-1.263 1.744c-.538.473-1.19.836-1.952 1.09-.763.256-1.606.383-2.527.383-1.503 0-3.06-.69-4.67-2.072-1.6 1.355-3.157 2.035-4.67 2.035-1.347 0-2.824-.665-4.438-1.998l-.182-.11a11.09 11.09 0 0 1-.764.865c-.267.272-.56.506-.88.7-.322.193-.69.35-1.108.463-.42.114-.906.173-1.463.173h-4.127v-3.253h4.107c1.043 0 1.778-.27 2.21-.808.43-.54.645-1.35.645-2.428v-4.562h3.09v4.526c0 .473.066.91.2 1.316.133.407.327.764.58 1.073.255.31.563.55.927.727.364.176.78.264 1.254.264 1.042 0 1.822-.287 2.344-.864.52-.575.78-1.396.78-2.463v-4.58h3.127v4.69c0 .97.277 1.746.83 2.334.55.59 1.292.882 2.225.882 1.006 0 1.764-.272 2.272-.817s.763-1.322.763-2.328v-4.762h3.145v5.415zm-11.595-11.232a2 2 0 0 1-.6 1.473 2.05 2.05 0 0 1-1.454.58 2.61 2.61 0 0 1-.873-.145 2.16 2.16 0 0 1-.718-.406 1.963 1.963 0 0 1-.664-1.5c0-1.138.686-1.71 2.055-1.71 1.503 0 2.254.57 2.254 1.71zm3.09-4.544c0 .29-.06.562-.173.817a2.26 2.26 0 0 1-.464.672c-.206.17-.428.303-.664.4a1.93 1.93 0 0 1-.755.145c-.315 0-.61-.057-.88-.164a2.625 2.625 0 0 1-.72-.417c-.483-.375-.726-.86-.726-1.453 0-1.164.69-1.745 2.07-1.745 1.54 0 2.31.58 2.31 1.744zm3.072 4.543c0 .618-.188 1.115-.563 1.49-.378.375-.856.564-1.44.564a2.582 2.582 0 0 1-1.616-.545c-.45-.376-.672-.88-.672-1.51 0-1.137.678-1.708 2.036-1.708 1.502 0 2.254.57 2.254 1.71z"/></g></svg>