<svg xmlns="http://www.w3.org/2000/svg" width="300" height="300" viewBox="0 0 300 300"><path fill="#522B1C" d="M84.842 180.527a9.674 9.674 0 0 0 9.676 9.677h114.005c5.342 0 9.672-4.33 9.672-9.677V66.035c0-5.344-4.33-9.675-9.672-9.675H94.518c-5.346 0-9.677 4.332-9.677 9.675l.002 114.492z"/><path fill="#D1A238" d="M84.842 128.968S99.3 93.874 123.034 93.86c13.166 0 21.294 2.113 29.907 7.966 14.864 10.096 29.134 19.976 39.497 19.017 17.555-1.625 25.758-26.982 25.758-26.982v29.42s-16.98 29.748-41.848 29.42c-19.834-.263-54.894-28.988-68.103-26.496-17.23 3.25-23.404 27.47-23.404 27.47l.002-24.706z"/><g fill="#231F20"><path d="M74.453 218.688c0-1.553-.103-2.852-.61-4.534-1.043-3.468-5.42-6.84-8.62-9.302-1.06-.817-1.978-1.523-2.567-2.073l-.305-.288-1.32.475-.136.876c-.164 1.052-.33 2.14-.358 3.22-1.61 1.666-2.803 3.22-3.746 4.857-.914 1.585-2.453 4.712-2.453 7.775 0 4.19 1.487 7.365 4.294 9.17 1.272.846 2.963 1.275 5.028 1.275 3.295 0 6.16-1.27 8.54-3.807 1.392-1.646 2.255-5.254 2.255-7.645zm-4.922 2.97c-1.824 1.318-3.667 1.958-5.637 1.958-3.025 0-5.78-2.162-5.78-4.54 0-2.375 1.72-4.94 5.26-7.84 1.766 1.05 4.043 2.65 5.638 4.63 1.288 1.62 1.94 2.898 1.94 3.79 0 .66-.463 1.314-1.42 2.002zM108.847 232.016l.447.424.47-.397a15.893 15.893 0 0 0 3.26-3.85l.274-.447-.363-.38c-1.525-1.605-3.072-2.986-4.602-4.102l-.507-.375-.415.478c-1.085 1.248-2.164 2.657-3.072 3.87l-.39.515 1.337 1.136c1.228 1.034 2.384 2.01 3.562 3.126zM128.895 248.148l-.244-.195-.21.223a34.778 34.778 0 0 0-3 3.604l-.144.198c-1.322-1.382-2.423-2.386-3.652-3.346l-.245-.188-.216.22a33.927 33.927 0 0 0-3 3.608l-.187.256.248.21a78.838 78.838 0 0 1 4.377 3.89l.235.222.234-.216c1.072-.995 1.848-2.003 2.906-3.513l.16-.228-.19-.205c-.07-.076-.14-.146-.21-.218a79.574 79.574 0 0 1 4.117 3.67l.234.224.237-.22c1.07-.993 1.846-2.003 2.9-3.51l.163-.228-.19-.202c-1.635-1.764-2.888-2.938-4.322-4.056z"/><path d="M133.173 223.77h-.915l-.204-.465c-.976 1.2-1.948 2.305-2.885 3.985l-.18.14.166.237c1.466 2.877 3.684 7.176 3.684 8.923 0 .002-.05.576-1.693 1.185-1.535.56-3.975.855-7.168.855h-1.73c-1.75 0-3.094-.63-4.234-1.557-.66-.52-.98-1.465-.98-2.683 0-.773.308-2.424.802-4.227l.097-.377-.876-1.032-3.3 2.385-1.155 4.494c-.482 1.838-3.283 2.994-5.8 2.994H89.12c-2.67 0-4.688-2.157-5.262-5.313-1.246-6.777-2.383-12.205-3.58-16.87l-.064-.3-.963-.675-.394.475c-.804.994-1.51 2.074-2.193 3.13l-.685 1.047.082.297c1.592 5.788 3.093 11.257 3.093 13.796 0 .503-.733 1.45-2.098 2.224-1.502.86-3.813 1.786-5.782 1.786-3 0-4.467-1.39-4.612-4.383l-.033-.705-2.754.21-.046.59c-.08.964-.114 1.89-.114 2.835 0 4.78 2.697 7.636 7.223 7.636 2.415 0 5.002-.855 7.908-2.618 1.113-.673 1.927-.857 2.448-1.834 1.505 3.414 4.056 5.713 7.755 5.713h17.65c3.216 0 5.992-1.238 7.52-3.29 1.44 2.212 4.02 3.29 7.85 3.29h1.73c6.007 0 8.78-1.27 10.59-3.084l.063-.385c1.29-1.708 2.77-4.254 2.77-7.562 0-4.66-2.945-9.568-3.846-11.16l-.2.293zM143.992 207.458c-1.164 1.056-4.083 2.63-5.138 3.982.603 6.5-.1 16.497-.1 23.374v3.682c0 2.48 1.416 5.15 1.04 7.517l1.218.262c2.178-2.405 3.555-3.987 3.668-6.052.19-1.652.445-3.908.445-6.196 0-8.758-.095-18.264-.887-26.456l-.246-.112zM151.09 198.194a8.44 8.44 0 0 1-2.1 1.204c-1.052.412-2.067.53-3.083.53-2.857 0-5.56-1.13-8.154-1.13-2.667 0-3.42 3.054-3.42 4.82l1.278 2.948h.264c.828-2.345 1.503-3.547 2.104-3.547 1.88 0 4.585.31 6.952.31 2.104 0 3.833-.768 5.26-1.967.376-.68.717-1.85 1.09-2.9l-.19-.27zM211.504 226.116h-.898l-.204-.227c-1.004 1.16-2 2.34-2.96 3.964l-.2.217.184.284c1.503 2.772 3.772 6.923 3.772 8.587 0 .008-.1.594-1.733 1.163-1.58.54-4.09.87-7.37.87h-1.31c-2.658 0-4.733-1.27-6.93-3.702-6-6.593-10.296-11.062-13.83-14.128l1.28-2.064-.764-.336c-1.26-.506-3.06-1.246-4.82-2.2 3.015-1.375 7.37-2.956 10.52-4.07 3.827-1.297 6.775-2.196 8.77-2.66l.23-.057.145-.192a29.383 29.383 0 0 0 3.036-4.56l.2-.374-.68-.963-.472.137c-9.37 2.753-19.53 5.92-23.883 8.557-.254.166-1.114.768-1.6 1.564-.777 1.29-1.14 2.392-1.14 3.468 0 .66.12 1.3.23 1.865l.08.442.126.14c.557.634 1.41 1.47 2.477 2.51 3.71 3.488 7.73 7.503 9.37 10.812.336.69.52 1.083.57 1.544-3.262 2.766-10.546 4.024-16.064 4.024-6.157 0-13.5-1.445-13.5-8.332 0-1.245.185-2.423.55-3.597l.206-.662-2.793-.854-.242.57c-.983 2.335-1.404 4.34-1.404 6.715 0 5.635 2.836 12.35 16.334 12.35 7.104 0 13.867-1.63 17.69-4.276 1.314-1.027 2.31-2.812 3.02-5.447.676.776 1.448 1.727 2.256 2.714l.396 1.23c2.594 3.23 5.35 6.87 10.52 6.87h1.228c6.15 0 8.982-1.36 10.837-3.108l.067-.438c1.326-1.65 2.852-4.146 2.852-7.352 0-4.513-3.028-9.504-3.956-11.038l-.19.042z"/><path d="M195.88 228.328l1.344 1.134c1.23 1.035 2.383 2.015 3.56 3.125l.445.426.47-.4a15.81 15.81 0 0 0 3.256-3.848l.274-.448-.36-.38c-1.527-1.607-3.077-2.987-4.6-4.102l-.51-.375-.41.475c-1.09 1.248-2.168 2.66-3.078 3.875l-.39.518zM240.01 249.288l-.51-.373-.413.477c-1.09 1.25-2.166 2.658-3.074 3.873l-.388.516 1.34 1.137c1.227 1.036 2.384 2.016 3.556 3.13l.453.422.468-.4a15.896 15.896 0 0 0 3.256-3.847l.28-.447-.365-.382c-1.524-1.607-3.075-2.986-4.6-4.106zM243.75 244.397c1.29-1.71 2.768-4.096 2.768-7.404 0-4.664-2.944-9.576-3.847-11.164l-.195.286h-.915l-.208-.38c-.976 1.2-1.95 2.34-2.885 4.025l-.18.16.17.245c1.464 2.876 3.68 7.188 3.68 8.932 0 .005-.046 1.666-1.69 2.28-1.53.56-3.975 1.943-7.167 1.943h-1.164c-.188 0-2.197-1.307-3.186-1.664-1.61-.58-3.372-2.94-3.372-4.665v-2.14c0-9.343 1.013-19.003.408-27.258l.477-.362-.73-.56-.238.286c-1.13.897-2.238 2.147-3.545 3.568l-.167.216.035.296c.48 6.82.983 14.826.983 22.534 0 5.438.006 8.98 2.534 11.55 1.643 1.645 3.714 2.892 6.917 2.892h.862c6.012 0 8.778-1.188 10.594-3.003l.064-.613z"/></g></svg>