<svg id="Layer_1" xmlns="http://www.w3.org/2000/svg" viewBox="-270 148.3 300 300"><style>.st0{fill:#7e746f}.st1{fill:#691014}.st2{fill:#171242}.st3{fill:#3c3870}.st4{fill:#591416}.st5{fill:#36368b}.st6{fill:#6c302b}.st7{fill:#59549b}.st8{fill:#7e4136}.st9{fill:#8f5247}.st10{fill:#5e53a2}.st11{fill:#9b6353}.st12{fill:#695ea3}.st13{fill:#7a6ea8}.st14{fill:#817fbc}.st15{fill:#b1a4cf}.st16{fill:#ae796e}.st17{fill:#cfa295}.st18{fill:#e1c0ad}.st19{fill:#124573}</style><path class="st0" d="M-133.5 233.5c-3.3-.3-6.5-.6-9.7-1 .1-2.1.6-4 1.3-5.8 2-5.3 6-8 11.3-9.1 4.7-.9 9.3-.8 13.7 1.3 3.1 1.5 5.3 3.8 6.7 6.9.3.7.7.9 1.4.9h7.2c.8 0 1.1.2 1 1v31.9c0 1.4 0 1.4 1.4 1.4h5.3c0 .3.1.6.1.9v7c0 .7-.2.9-.9.9h-5c-.7 0-.9.2-.9.9v9.9c-.4 0-.7.1-.9.1h-7.7c-.9 0-1-.3-1-1.1v-8.5c0-.8-.3-1.1-1.1-1h-33.1c.2-1 .3-2 .5-2.9 1.1-4.7 3.5-8.7 6.8-12.2 4.1-4.2 8.3-8.2 12.5-12.4 1.7-1.7 3.5-3.5 4.6-5.7 1.1-2.2 1.4-4.5.9-6.8-.6-2.9-3.1-4.8-6.3-5-4.5-.2-7.3 2.4-7.8 7.1-.2.4-.3.8-.3 1.3zm23.2 5.8c-.1 0-.2 0-.3-.1-.1.2-.3.4-.4.6-1.4 2.8-3.2 5.4-5.4 7.6-2.4 2.4-5 4.7-7.4 7.1-1.7 1.7-3.4 3.6-5 5.4-.2.2-.4.6-.6 1 .5.1.8.1 1.1.1h16.8c.9 0 1.2-.2 1.2-1.2v-19.7-.8z"/><path class="st1" d="M-132.2 308.6c4.2-6.9 8.3-13.7 12.5-20.7 4.2 7 8.4 13.9 12.6 20.9-4.2 2.9-8.5 5.7-12.7 8.6-4.1-3-8.2-5.9-12.4-8.8z"/><path class="st2" d="M-119.5 209.5c-4.2-6.8-8.2-13.5-12.3-20.3.7-.5 1.5-1.1 2.2-1.6 3.2-2.2 6.3-4.4 9.5-6.5.2-.2.7-.3.9-.2 3.9 2.7 7.8 5.5 11.8 8.3-4 6.8-8 13.5-12.1 20.3z"/><path class="st3" d="M-163.5 203.5c1-2.2 2-4.3 2.9-6.5.8-1.8 1.6-3.5 2.4-5.3.2-.5.4-.7 1-.6 4.1.3 8.1.6 12.1.8.7 0 .6.5.6.9v20.5c-6.3-3.3-12.6-6.5-19-9.8z"/><path class="st4" d="M-94.8 284.7c6.1 3.4 12.1 6.7 18.2 10.1-.5 1-.9 1.9-1.4 2.9-1.3 2.8-2.7 5.5-4 8.3-.2.5-.5.7-1.1.6-3.6-.4-7.3-.7-11-1.1-1.3-.1-1.3-.1-1.2-1.4.2-6.2.3-12.3.4-18.5 0-.2 0-.4.1-.9z"/><path class="st5" d="M-182.2 227.9v-3.8c0-2.5 0-5.1-.1-7.6 0-.5.1-.8.7-1 3.3-1.3 6.6-2.6 9.8-3.9.5-.2.8-.2 1 .3l7.8 16.2c.1.1.1.2.1.5-6.4-.2-12.7-.5-19.3-.7z"/><path class="st6" d="M-57.2 269.9c0 .3.1.6.1.9.1 3.5.2 7 .4 10.5 0 .4 0 .8-.5 1-3.5 1.4-7 2.9-10.6 4.4-2.8-5.7-5.7-11.3-8.6-17.1 6.5 0 12.8.2 19.2.3z"/><path class="st7" d="M-172.7 248.7c-5.3 2.3-10.5 4.5-15.8 6.7l-2.1-4.2c-.8-1.6-1.6-3.3-2.4-5-.1-.3-.1-.7 0-.9 2.3-2.5 4.7-5 7-7.5 4.5 3.7 8.9 7.2 13.3 10.9z"/><path class="st8" d="M-45.7 252.3c-2.4 2.5-4.8 5.1-7.2 7.6-4.3-3.5-8.5-7-12.9-10.6 5.2-2.2 10.3-4.4 15.5-6.5 1.5 3.2 3.1 6.3 4.6 9.5z"/><path class="st9" d="M-51 231.5c-4.8-1.5-9.5-3.1-14.5-4.6 3.7-3.6 7.3-7.2 11-10.8 1.3 1.2 2.5 2.3 3.8 3.4 1 .9 2 1.8 2.9 2.7.2.2.3.6.2.9-1 2.7-2.1 5.4-3.2 8.1-.1.1-.1.1-.2.3z"/><path class="st10" d="M-173.7 270.9l-10.7 10.7c-.8-.8-1.7-1.5-2.6-2.3-1.3-1.2-2.6-2.4-4-3.5-.4-.3-.4-.6-.3-1.1l3-7.5c.2-.5.4-.7.9-.5 4.5 1.3 9.1 2.7 13.7 4.2z"/><path class="st11" d="M-59.4 206.2c-4.6.4-9.2.7-14 1.1 1.9-4.4 3.7-8.7 5.6-13 1.9.7 3.7 1.3 5.6 2 .9.3 2.2.5 2.6 1.1.5.7.2 1.9.2 2.9v5.9z"/><path class="st12" d="M-166.3 291c-.6 1.4-1.2 2.7-1.8 4-1.1 2.4-2.2 4.7-3.3 7.1-.3.6-.5.7-1.1.5-2.1-.9-4.3-1.7-6.4-2.6-.2-.1-.5-.4-.5-.7 0-2.3.1-4.6.1-6.9 0-.4 0-.8.6-.8 4-.2 7.9-.4 11.9-.5.1-.2.2-.1.5-.1z"/><path class="st13" d="M-152.4 305.7c-.1 1.4-.2 2.8-.3 4.1-.2 2.4-.4 4.9-.6 7.3 0 .6-.3.8-.9.8-2.2-.1-4.3-.1-6.5-.3-.2 0-.6-.2-.7-.4-.7-2-1.4-4.1-2.1-6.2-.1-.4-.3-.7.3-.9 3.5-1.4 6.9-2.9 10.3-4.3.1 0 .2 0 .5-.1z"/><path class="st14" d="M-136.6 315.7c.2 1.1.3 2.2.5 3.2l.9 5.7c.1.5 0 .7-.5.8-1.7.3-3.4.7-5 1-.2 0-.5-.1-.6-.2-.9-1.4-1.9-2.9-2.8-4.3-.2-.3-.3-.5 0-.8 2.4-1.7 4.8-3.5 7.1-5.2.1-.1.2-.1.4-.2z"/><path class="st15" d="M-119.5 318.8c.5.9 1 1.6 1.5 2.4.9 1.5 1.7 2.9 2.6 4.4.2.4.2.6-.2.8-1.3.8-2.5 1.7-3.8 2.5-.1.1-.4.1-.5 0-1.2-.9-2.4-1.7-3.7-2.6-.2-.2-.4-.3-.2-.6 1.4-2.2 2.7-4.4 4.1-6.6 0-.1.1-.1.2-.3z"/><path class="st16" d="M-75.2 187c-3.7 1.8-7.4 3.5-11.3 5.3v-2.5c.1-2.9.3-5.9.4-8.8.1-1.5-.1-1.3 1.3-1.3 2 0 4.1-.1 6.1-.1.2 0 .6.2.7.4 1 2.3 1.9 4.6 2.8 7z"/><path class="st17" d="M-94.3 175.6c-2.6 2.5-5.2 5-7.9 7.6-.3-.8-.5-1.4-.7-2.1-.7-2.5-1.4-5-2.1-7.4-.3-1.3-.4-1.1.7-1.5l5.1-1.8c.2-.1.6 0 .7.1l4.2 5.1z"/><path class="st18" d="M-114.4 171.4c-1.7 2.8-3.3 5.6-5 8.4-.4-.6-.8-1.1-1.1-1.6-1.2-2-2.4-3.9-3.6-5.9-.6-1-.6-.8.3-1.4 1.3-.9 2.6-1.8 4-2.7.2-.1.5-.2.6-.1 1.6 1.1 3.1 2.2 4.8 3.3z"/><path class="st19" d="M-141.4 345c1.7 1.9 3.3 3.7 4.9 5.5-3.3 2.7-6.5 5.4-9.7 8.1 1.5 2.1 3.1 4 4.2 6.2 1.1 2.1 2.1 4.4 2.5 6.8.5 2.9-.9 5.2-3.3 6.9-1 .7-2.2 1.4-3.4 1.7-5 1.4-10.3 1.6-15.2.2-2.7-.8-4.8-.8-7.5 0-4.7 1.4-9.5 1.3-13.9-1.5-6.7 3-11.5 3-15.3-.1-2.4 2-5.1 2.8-8.5 1.6.8 3.3 1.5 6.4 2.2 9.7-1.7.6-3.4 1.3-5.1 1.9-5.1 1.7-10.1 3.6-15.3 4.9-3 .8-6.3.8-9.5.5-5.4-.4-10.1-5.8-10.4-11.2-.3-4.9.8-9.5 2.2-14.1.6-2 1.2-3.9 1.9-6.1 2.3.9 4.5 1.6 6.6 2.5.3.1.5 1.1.3 1.6-.9 3.7-2.2 7.4-2.8 11.2-1 5.6 2.1 9 7.8 8.6 1.8-.1 3.7-.5 5.4-1 3-1 6-2.2 8.9-3.3.3-.1.6-.3 1.1-.5-1.5-5.8-2.9-11.6-4.5-17.6 2.7-.7 5.3-1.3 8-2 .3 1.1.5 2 .8 3 .2.8.4 1.6.7 2.4.6 1.4 1.5 2.6 3.2 2.6 1.7 0 2.2-1.5 2.6-2.9.4-1.4.7-2.8 1-4.4 2.5.4 5 .8 7.6 1.2-.2 1.3-.4 2.5-.5 3.7-.1 1.7.8 2.5 2.8 2.5 2 0 3.1-.9 3-2.5-.2-1.5-.6-2.9-1-4.6 2.2-.7 4.4-1.4 7-2.2.3 1.5.6 2.9.9 4.3.9 4.6 6.3 6.8 10.2 4.3.5-.3.9-1.4.9-2.1 0-1.3-.4-2.6-.7-4.1 2.5-.6 4.8-1.1 7.3-1.7.3 1.8.6 3.3.9 4.8.5 2.5 1.6 3.6 4.2 3.8 2.5.2 5 .2 7.5.2.5 0 1-.1 1.5-.2 2.1-.5 2.7-1.5 1.5-3.3-2.3-3.6-4.8-7.1-7.2-10.7-.3-.4-.6-.8-1-1.4 5.3-4.7 10.2-8.9 15.2-13.2zM-3.2 365c2.5-.5 4.8-1.1 7.4-1.7.6 3.2 1.4 6.3 1.7 9.4.2 2.2-1 4.1-2.8 5.5-3.6 2.8-7.7 3.5-12 2.4-1.1-.3-2.1-1.1-3.4-1.8-1.5 1.6-3.6 2.5-6.1 2.3-2.4-.2-4.3-1.3-6-3.2-2.7 3.2-6.4 3.3-10.1 3.1-3.6-.1-7.2-.6-10.9-.9v-31.6h7.7V371.4c0 1.4.4 1.9 1.8 1.9 1.2-.1 2.3.1 3.5 0 2.7-.3 3.4-1.4 2.9-4.1-.1-.5-.2-1-.4-1.7 2.4-.5 4.8-.9 7.3-1.4.3 1.3.5 2.4.7 3.5.6 2.5 1.7 3.9 3.1 3.8 1.4-.1 2.6-1.6 3-4 .2-1.1.4-2.2.6-3.5 2.4.4 4.8.8 7.2 1.3-.2 1.3-.4 2.5-.6 3.7-.1.5-.1 1 .1 1.4.5 1 2.9 1.3 4.5.6 1.3-.5 2.2-1.3 1.8-2.9-.1-1.5-.6-3.2-1-5zM-87 348.5h7.5c0 .6.1 1.2.1 1.8v21.1c0 1.3.3 1.8 1.7 2 3 .3 5-1.1 6.7-3.3 1.5-2.1 2.9-4.3 4.3-6.3 1.8-2.4 4.1-3.9 7.2-3.9 2.7 0 4.7 1.2 5.5 3.8 1.1 3.7 2.1 7.4 2.7 11.2.8 5.8-4.9 10-10.3 7.8-1.1-.4-2.1-1.1-3-1.7-1.3-.9-2.6-1.9-4-2.9-3 3.6-7 3.4-11 2.9-2.4-.3-4.7-.5-7.2-.8-.2-10.7-.2-21.1-.2-31.7zm21.8 24.1c2.1 1.2 3.8 2.3 5.6 3.3 1.1.6 1.9.1 1.7-1-.4-2.3-.9-4.5-1.6-6.8-.3-1.1-1.2-1.3-2-.3-1.2 1.5-2.3 3-3.7 4.8zM-93.4 386.8c-8.3 2.8-16.1 6.4-24.6 7.5-8 1.1-14.8-3.8-15.7-11.5-.3-2.3-.1-4.8.5-7.1 1-4.1 2.3-8.1 3.6-12.3 2.6.6 5 1.2 7.6 1.8-.2.8-.5 1.5-.6 2.3-.9 3.6-2.1 7.2-2.6 10.9-.8 5.1 2.4 8.5 7.6 8 2.6-.2 5.3-.9 7.8-1.7 2.7-.8 5.2-1.8 8-2.8-1.5-6.1-3-12.1-4.5-18.1 2.5-.5 4.8-1 7.4-1.5 1.7 8.2 3.6 16.2 5.5 24.5z"/><path class="st19" d="M-118 368.6v-6.7h6.7v6.7h-6.7zM-198.1 351.4h5.9c.3 0 .8.6.8.9.1 1.9 0 3.8 0 5.8h-6.8c.1-2.1.1-4.2.1-6.7zM-201.2 358.3h-6.9c0-2-.1-3.9 0-5.9 0-.3.6-.9 1-.9 1.6-.1 3.2-.1 4.8 0 .4 0 1 .6 1 .9.2 1.9.1 3.8.1 5.9zM-196.4 342.4v6.4h-6.7v-6.4h6.7zM-174.8 395v-6.4h6.4v6.4h-6.4zM-159.3 395.1h-6.4v-6.5h6.4v6.5z"/></svg>