<svg width="194" height="153" viewBox="0 0 194 153" xmlns="http://www.w3.org/2000/svg" xmlns:xlink="http://www.w3.org/1999/xlink"><defs><path id="a" d="M77.5 53.4l25.3-19.5c1.4-1.1 3.5-.8 4.6.6L118.6 49c1.1 1.4.8 3.5-.6 4.6L92.7 73.1c-1.4 1.1-3.5.8-4.6-.6L76.9 58c-1.1-1.4-.8-3.5.6-4.6z"/></defs><g fill="none" fill-rule="evenodd"><path d="M154.4 94.7h-15.5c-5.4 0-5.6-1.8-5.6-6.7 0-3.6-1.4-4.8-4.5-4.8-1.4 0-2.5-1.1-2.5-2.5s1.1-2.5 2.5-2.5h12.4c5.4 0 9.8-4.4 9.8-9.8s-4.4-9.8-9.8-9.8h17.9c5.7 0 10.4-4.7 10.4-10.4s-4.7-10.4-10.4-10.4H142h.4c-1.9-.2-3.3-1.8-3.3-3.7 0-1.9 1.5-3.5 3.3-3.7h-.4 4.1c4.9 0 8.9-4 8.9-8.9s-4-8.9-8.9-8.9H31.9c-6 0-10.9 4.9-10.9 10.9s4.9 10.9 10.9 10.9c2.3 0 4.1 1.2 4.1 3.7 0 2-1.7 3.7-3.7 3.7H18.1c-6.8 0-12.4 5.6-12.4 12.4 0 6.8 5.6 12.4 12.4 12.4h29.8c-5.7 0-10.3 4.7-10.3 10.3 0 5.7 4.7 10.3 10.3 10.3H55.7c1.7 0 3.2 1.5 3.2 3.2 0 1.7-1.4 3.2-3.2 3.2h-3.4c-5.8.3-10.7 5.7-10.7 11.5 0 3.4 1.5 6.4 3.8 8.5h-3.7c-4.3 0-7.8 3.5-7.8 7.8s3.5 7.8 7.8 7.8H59.3c3.1.4 5.4 3.1 5.4 6.3 0 1.6-.7 3-.7 5.1 0 6.3 5.2 11.5 11.5 11.5h45.8c6.3 0 11.5-5.2 11.5-11.5s-5.2-11.5-11.5-11.5h-.6c-3.2 0-5.7-2.6-5.7-5.7 0-3.2 2.6-5.7 5.7-5.7h33.7c6.3 0 11.5-5.2 11.5-11.5-.1-6.3-5.2-11.5-11.5-11.5zM171.5 35.2h-4.6c-3.1 0-5.7-2.6-5.7-5.7s2.6-5.7 5.7-5.7h4.6c3.1 0 5.7 2.6 5.7 5.7-.1 3.1-2.6 5.7-5.7 5.7z" fill="#FFF"/><path d="M30.4 108.8H18.9c-4.1 0-7.5-3.4-7.5-7.5s3.4-7.5 7.5-7.5h11.5c4.1 0 7.5 3.4 7.5 7.5s-3.3 7.5-7.5 7.5zM150.4 89.4c2 0 3.6-1.6 3.6-3.6s-1.6-3.6-3.6-3.6-3.6 1.6-3.6 3.6 1.6 3.6 3.6 3.6z" fill="#FFF"/><path d="M143.5 22.5c-.4-.4-.4-1 0-1.4.4-.4 1-.4 1.4 0 7 6.9 12.5 15 16.2 23.8 3.7 8.9 5.7 18.5 5.7 28.3 0 2.7-.2 5.4-.4 8.1-.1.5-.5.9-1.1.9-.5-.1-.9-.5-.9-1.1.3-2.6.4-5.2.4-7.9 0-9.5-1.9-18.9-5.5-27.5-3.6-8.6-8.9-16.5-15.8-23.2zM160 99.1c.2-.5.8-.7 1.2-.5.5.2.7.8.5 1.2-1.6 4.1-3.6 8.1-5.9 11.8-2.3 3.7-5 7.3-8 10.6-.4.4-1 .4-1.4.1-.4-.4-.4-1-.1-1.4 2.9-3.2 5.5-6.6 7.7-10.3 2.5-3.6 4.4-7.5 6-11.5zM57.5 134.2c.5.3.6.9.3 1.3-.3.5-.9.6-1.3.3-11-6.6-19.9-15.8-26-26.6C24.4 98.4 21 86 21 73.2c0-1.6.1-3.2.2-4.8 0-.5.5-.9 1-.9s.9.5.9 1c-.1 1.5-.2 3.1-.2 4.7 0 12.5 3.3 24.5 9.2 35 6 10.6 14.7 19.6 25.4 26zM107 143c.5-.1 1 .2 1.1.8.1.5-.2 1-.8 1.1-2.2.4-4.5.7-6.7.9-2.3.2-4.5.3-6.8.3-3.8 0-7.6-.3-11.4-.9-3.8-.6-7.5-1.5-11.1-2.7-.5-.2-.8-.7-.6-1.2.2-.5.7-.8 1.2-.6 3.5 1.1 7.2 2 10.8 2.6 3.6.6 7.3.9 11.1.9 2.2 0 4.4-.1 6.6-.3 2.3-.2 4.4-.5 6.6-.9zM67.5 7.4c-.5.2-1.1 0-1.3-.5-.2-.5 0-1.1.5-1.3 4.3-1.7 8.8-3 13.3-3.9C84.5.8 89.2.4 93.8.4c4.7 0 9.3.4 13.9 1.3s9 2.2 13.4 4c.5.2.7.8.5 1.3-.2.5-.8.7-1.3.5-4.2-1.7-8.6-3-13-3.8-4.4-.9-9-1.3-13.5-1.3s-9 .4-13.4 1.3c-4.4.7-8.7 2-12.9 3.7zM38.4 29.1c-.3.4-.9.5-1.4.2-.4-.3-.5-.9-.2-1.4 2.7-3.4 5.8-6.6 9-9.5 3.3-2.9 6.8-5.5 10.6-7.7.5-.3 1-.1 1.3.3.3.5.1 1-.3 1.3-3.7 2.2-7.1 4.7-10.3 7.5-3.1 2.8-6.1 5.9-8.7 9.3z" fill="#FDB913"/><path d="M13.9 80.6c2 0 3.6-1.6 3.6-3.6s-1.6-3.6-3.6-3.6-3.6 1.6-3.6 3.6 1.6 3.6 3.6 3.6z" fill="#FFF"/><path d="M90.6 79L61.4 68.9v39.3l29.2 9.7V79zM90.6 79l29.2-10.1v39.3l-29.2 9.7V79z" fill="#1887C2"/><path d="M61.4 69l-8.9-10.1 28.7-10.2 9.3 10.1L61.4 69z" fill="#5D9ED5"/><path d="M90.5 58.8L119.8 69l10-10.2-29-9.3-10.3 9.3z" fill="#87B8E3"/><path d="M90.5 58.8l.1 20.3L119.8 69 90.5 58.8z" fill="#1887C2"/><path d="M90.6 79.1L61.4 69v36.2l29.2 9.7V79.1z" fill="#6EA9DB"/><path d="M90.6 79.1L119.8 69v36.2l-29.2 9.7V79.1zM90.6 79.1v4.7L80.8 94l-19.4-7.4V73.8l29.2 5.3z" fill="#5D9ED5"/><path d="M150.3 138.3c3 0 5.4-2.4 5.4-5.4 0-3-2.4-5.4-5.4-5.4-3 0-5.4 2.4-5.4 5.4-.1 2.9 2.4 5.4 5.4 5.4z" fill="#FFF"/><path d="M90.6 79.1v4.7L101.1 94l18.7-6.7V69L90.6 79.1z" fill="#5993CE"/><path d="M90.6 79.1l-9.8 10.1-28.3-10.8 8.9-9.4 29.2 10.1z" fill="#87B8E3"/><path d="M90.6 79.1l10.5 9.7 28.7-10.2-10-9.6-29.2 10.1z" fill="#6EA9DB"/><path d="M90.6 79.1l-.1-20.3L61.4 69l29.2 10.1z" fill="#5995CD"/><path d="M77.5 54.9l25.3-19.5c1.4-1.1 3.5-.8 4.6.6l11.2 14.5c1.1 1.4.8 3.5-.6 4.6L92.7 74.5c-1.4 1.1-3.5.8-4.6-.6L76.9 59.5c-1.1-1.4-.8-3.5.6-4.6z" fill="#1887C2"/><use xlink:href="#a"/><use fill="#FDCF41" xlink:href="#a"/><path d="M92.3 53.7l12.4-9.6-.5-1c0-.1-.1-.1-.2-.1s-.3 0-.4.1h-.1L91.9 52l-.4-1.7 11-8.5c.1-.1.2-.1.3-.2.4-.2.9-.3 1.3-.3.5.1.9.3 1.2.7 0 .1.1.1.1.2l5.2 9.2c.3.5.4 1 .3 1.5-.1.5-.3 1-.7 1.3h-.1l-10.5 8.1-6.1 4.7-1 .7-.3-1.2-3.3-15.1-4.8 3.7-.9-1.2 5.8-4.5 1-.7.3 1.2L93.6 65l5.1-4 10.5-8.1h.1c.1-.1.1-.2.2-.3 0-.2 0-.4-.1-.5l-2.6-4.6-13.6 10.7-.9-4.5zm5.5 5.2c-.2.1-.2.4-.1.6.1.2.4.2.6.1l7.8-6c.2-.1.2-.4.1-.6-.1-.2-.4-.2-.6-.1l-7.8 6zm5.1-6.8c-.2.1-.2.4-.1.6.1.2.4.2.6.1l1.5-1.2c.2-.1.2-.4.1-.6-.1-.2-.4-.2-.6-.1l-1.5 1.2zm-5.3 4.1c-.2.1-.2.4-.1.6.1.2.4.2.6.1l3.9-3c.2-.1.2-.4.1-.6-.1-.2-.4-.2-.6-.1l-3.9 3z" fill="#1E5B83"/><g stroke="#255F93" stroke-width="2.262"><path d="M133.7 69.6v-3.2M132.1 68h3.2"/></g><g stroke="#255F93" stroke-width="2.262"><path d="M76 70.6v-3.2M74.4 69h3.2"/></g><path d="M49 30.4l16 27.7M54.7 30.4l5.1 9M139.8 34.2l2.2-3.8M122.3 64.6L138.2 37M66.6 60.9l2.2 3.7" stroke="#286092" stroke-width="2.023"/><circle stroke="#255F93" stroke-width="2.023" cx="76.2" cy="27.7" r="5.1"/><path d="M77.4 25.7l-1.2 3.9-1.9-.7" stroke="#255F93" stroke-width="2.023"/><g stroke="#255F93" stroke-width="1.837"><path d="M123.7 53.2v-2.9M122.2 51.7h2.9"/></g><g stroke="#255F93" stroke-width="1.837"><path d="M61.6 19.4v-2.9M60.2 17.9h2.9"/></g><g stroke="#255F93" stroke-width="1.837"><path d="M115.4 35.6v-2.9M114 34.1h2.9"/></g><g stroke="#255F93" stroke-width="1.837"><path d="M70 45v-2.8M68.6 43.6h2.9"/></g><g stroke="#255F93" stroke-width="1.837"><path d="M91.4 25.5v-2.9M90 24.1h2.8"/></g><g stroke="#255F93" stroke-width="1.837"><path d="M51.1 70.6v-2.9M49.7 69.1h2.9"/></g><circle fill="#255F93" cx="34.4" cy="51.8" r="1.7"/><g stroke="#255F93" stroke-width="1.837"><path d="M127.5 97.9V95M126 96.5h2.9"/></g><path d="M113.1 26.2c1.5 0 2.7-1.2 2.7-2.7 0-1.5-1.2-2.7-2.7-2.7-1.5 0-2.7 1.2-2.7 2.7 0 1.5 1.2 2.7 2.7 2.7z" fill="#255F93"/><path d="M129.8 25.8l2.7.8c-.1 1 .5 1.9 1.5 2.2.2.1.4.1.6.1-.3 1.2-.6 2.2-.9 3.2-1.2 3.3-3.9 4.8-7.4 5.8-2.4-2.7-3.8-5.4-3.1-8.9.2-1 .5-2.1.9-3.2l.6.3c1 .3 2-.2 2.4-1l2.7.7z" stroke="#255F93" stroke-width="2.023"/><path d="M126.2 30.2l3.6 1.1c.2.1.3.2.2.4l-.8 2.6c-.1.2-.2.3-.4.2l-3.6-1.1c-.2-.1-.3-.2-.2-.4l.8-2.6c.1-.2.2-.3.4-.2zm1.6 1.5c-.2-.1-.4.1-.5.3 0 .1 0 .3.1.4l-.2.6c0 .1 0 .2.1.2s.2 0 .2-.1l.2-.6c.1 0 .3-.1.3-.3.1-.3 0-.5-.2-.5z" fill="#255F93"/><path d="M126.8 30.5l2.4.7.5-1.6c.1-.3-.1-.6-.4-.7l-1.3-.4c-.3-.1-.6.1-.7.4l-.5 1.6z" stroke="#255F93" stroke-width="1.214"/><path d="M4.2 38.4c2 0 3.6-1.6 3.6-3.6s-1.6-3.6-3.6-3.6S.6 32.8.6 34.8c.1 2 1.7 3.6 3.6 3.6zM190.1 48.7c2 0 3.6-1.6 3.6-3.6s-1.6-3.6-3.6-3.6-3.6 1.6-3.6 3.6 1.6 3.6 3.6 3.6z" fill="#FFF"/><path d="M89.9 122.6c11.6 0 20.9-.1 20.9.8s-9.4 3.3-20.9 3.3c-11.6 0-20.9-2.4-20.9-3.3-.1-.9 9.3-.8 20.9-.8z" fill="#D9DBDA"/><path d="M50.9 106.8c1.5 0 2.7-1.2 2.7-2.7 0-1.5-1.2-2.7-2.7-2.7-1.5 0-2.7 1.2-2.7 2.7 0 1.5 1.2 2.7 2.7 2.7zM33.4 26.1c1.3 0 2.3-1 2.3-2.3 0-1.3-1-2.3-2.3-2.3-1.3 0-2.3 1-2.3 2.3 0 1.2 1.1 2.3 2.3 2.3z" fill="#255F93"/><g stroke="#255F93" stroke-width="1.837"><path d="M49.6 56.5l-2.1-2M47.5 56.5l2.1-2"/></g><g stroke="#255F93" stroke-width="1.837"><path d="M141.9 50.9l-2-2.1M139.9 50.9l2-2.1"/></g></g></svg>