<svg id="Layer_1" data-name="Layer 1" xmlns="http://www.w3.org/2000/svg" viewBox="0 0 141.73 141.73"><defs><style>.cls-1{fill:#96bee6}.cls-1,.cls-10,.cls-12,.cls-16,.cls-19,.cls-2,.cls-21,.cls-3,.cls-4,.cls-5,.cls-6,.cls-7,.cls-8,.cls-9{fill-rule:evenodd}.cls-10,.cls-2,.cls-6,.cls-9{fill:#fbfbfc}.cls-10,.cls-11,.cls-12,.cls-13,.cls-14,.cls-15,.cls-17,.cls-18,.cls-19,.cls-2,.cls-21,.cls-4,.cls-5,.cls-6,.cls-8{stroke:#255c94}.cls-10,.cls-11,.cls-12,.cls-13,.cls-14,.cls-15,.cls-17,.cls-18,.cls-19,.cls-2,.cls-3,.cls-4,.cls-5,.cls-6,.cls-8{stroke-linecap:round}.cls-10,.cls-12,.cls-13,.cls-14,.cls-15,.cls-17,.cls-18,.cls-19,.cls-2,.cls-3,.cls-4,.cls-5,.cls-6,.cls-8{stroke-linejoin:round}.cls-2{stroke-width:1.26px}.cls-11,.cls-12,.cls-13,.cls-14,.cls-15,.cls-17,.cls-18,.cls-19,.cls-21,.cls-22,.cls-3,.cls-4,.cls-5{fill:none}.cls-3{stroke:#285d93}.cls-11,.cls-3,.cls-5,.cls-8,.cls-17,.cls-4{stroke-width:1.19px}.cls-6{stroke-width:1.26px}.cls-20,.cls-7{fill:#255c94}.cls-8{fill:#d9dada}.cls-10{stroke-width:1.26px}.cls-11,.cls-21{stroke-miterlimit:22.93}.cls-12{stroke-width:1.19px}.cls-13,.cls-14{stroke-width:.92px}.cls-15{stroke-width:.95px}.cls-16{fill:#cde4f7}.cls-18{stroke-width:1.19px}.cls-19{stroke-width:.91px}.cls-21{stroke-width:.89px}</style></defs><path class="cls-1" d="M53.99 39.66h45.83a15 15 0 0 1 15 15 15 15 0 0 1-15 15H89.13v5.52h25.07a5.52 5.52 0 0 1 5.5 5.41 5.61 5.61 0 0 1-5.51 5.6h-11.8a3.3 3.3 0 0 0-3.28 3.28 3.29 3.29 0 0 0 3.28 3.28h1.42a5.52 5.52 0 0 1 5.51 5.51 5.52 5.52 0 0 1-5.51 5.51H33.53a15 15 0 0 1-15-15 15 15 0 0 1 15-15h2.5a2.14 2.14 0 0 0 2.13-2.13 2.14 2.14 0 0 0-2.13-2.13h-4.16a8.3 8.3 0 0 1-8.28-8.28 8.3 8.3 0 0 1 8.28-8.28h12.51v-6.69H40.7a3.36 3.36 0 0 1-3.35-3.35 3.36 3.36 0 0 1 3.35-3.35H54z"/><path class="cls-2" d="M36.27 58.97a9.66 9.66 0 1 0-9.66-9.66 9.68 9.68 0 0 0 9.66 9.66z"/><path class="cls-3" d="M114.94 64.31a44.1 44.1 0 0 1 .29 5q0 1.5-.1 3"/><path class="cls-4" d="M54.7 28.37a44.12 44.12 0 0 1 42.71 5.53"/><path class="cls-5" d="M95.07 106.37a44.12 44.12 0 0 1-24 7.08q-1.79 0-3.58-.15M60.38 112.12a44.12 44.12 0 0 1-10.24-4"/><path class="cls-1" d="M103.39 28.59h14.72a.73.73 0 0 0 .66-.73.73.73 0 0 0-.66-.73h-6.91a2.34 2.34 0 0 1-2.33-2.33 2.34 2.34 0 0 1 2.33-2.33h19.34a2.34 2.34 0 0 1 2.33 2.33 2.34 2.34 0 0 1-2.33 2.33h-6.65a.73.73 0 0 0-.73.73.73.73 0 0 0 .73.73h1.91a3 3 0 0 1 3 3 3 3 0 0 1-3 3h-22.41a3 3 0 0 1-3-3 3 3 0 0 1 3-3z"/><path class="cls-6" d="M57.17 72l-12.54-7.14 67.08-10L57.17 72z"/><path class="cls-7" d="M64.7 70.23l-5.45 15.05 12.65-4.25-7.2-10.8z"/><path class="cls-8" d="M57.17 72l54.01-17.06-43.42 20.03-8.71 9.75L57.17 72z"/><path class="cls-7" d="M84.95 46.93l-16.11 5.25a2.44 2.44 0 0 0-1.34 2.2v21.15l18.8-8.33V47.94a1 1 0 0 0-1.35-1.01z"/><path class="cls-9" d="M68.41 58.86l17.07-5.23v12.98L68.41 73.9V58.86z"/><path class="cls-10" d="M67.86 74.85L82.73 94.3l28.98-39.44-43.85 19.99z"/><path class="cls-11" d="M52.73 81.05L34.54 86.6M65.07 89.76l-18.19 5.55"/><path class="cls-12" d="M53.51 86.59L23.9 96.47z"/><path class="cls-5" d="M20.2 97.98l-6.19 2.07z"/><path class="cls-13" d="M81.69 59.09l1.98-.6"/><path class="cls-14" d="M77.87 60.27l1.98-.61M74.05 61.45l1.97-.61M70.22 62.62l1.98-.61"/><path class="cls-15" d="M70.22 65.95l7.28-2.25"/><path class="cls-4" d="M41.2 36.91a44.12 44.12 0 0 1 7.3-5.46M28.87 82.09a44.12 44.12 0 0 1-.81-22.45"/><path class="cls-1" d="M13.2 50.39h7.86a.39.39 0 0 0 .35-.39.39.39 0 0 0-.35-.39H18.2a1.25 1.25 0 0 1-1.25-1.25 1.25 1.25 0 0 1 1.25-1.25h10.33a1.25 1.25 0 0 1 1.25 1.25 1.25 1.25 0 0 1-1.25 1.25h-4.45a.39.39 0 0 0-.39.39.39.39 0 0 0 .39.39H26a1.61 1.61 0 0 1 1.6 1.6 1.61 1.61 0 0 1-1.6 1.6H13.2a1.61 1.61 0 0 1-1.6-1.6 1.61 1.61 0 0 1 1.6-1.6zM104.41 116.04h7.86a.39.39 0 0 0 .35-.39.39.39 0 0 0-.35-.39h-2.79a1.25 1.25 0 0 1-1.25-1.25 1.25 1.25 0 0 1 1.25-1.25h10.33a1.25 1.25 0 0 1 1.25 1.25 1.25 1.25 0 0 1-1.25 1.25h-4.45a.39.39 0 0 0-.39.39.39.39 0 0 0 .39.39h1.92a1.61 1.61 0 0 1 1.6 1.6 1.61 1.61 0 0 1-1.6 1.6h-12.87a1.61 1.61 0 0 1-1.6-1.6 1.61 1.61 0 0 1 1.6-1.6z"/><path class="cls-16" d="M36.27 43.89h-2.64a1.94 1.94 0 0 1-2.49 1.49 24.65 24.65 0 0 0 0 3.11c.24 3.29 2.26 5.37 5.12 7.16 2.86-1.79 4.88-3.87 5.12-7.16a24.69 24.69 0 0 0 0-3.11 1.94 1.94 0 0 1-2.49-1.49h-2.64z"/><path class="cls-17" d="M42.7 79.99v-2.3"/><path class="cls-18" d="M41.55 78.84h2.3"/><path class="cls-17" d="M42.96 111.8v-2.71"/><path class="cls-18" d="M41.6 110.44h2.71"/><path class="cls-17" d="M26.06 102.91v-2.31"/><path class="cls-18" d="M24.91 101.75h2.3M22.09 85.78v-1.85M21.17 84.86h1.85M9.47 93.19v-1.23"/><path class="cls-17" d="M8.86 92.58h1.22"/><path class="cls-18" d="M13.37 118.45v-1.23"/><path class="cls-17" d="M12.76 117.84h1.22M13.27 80.69v-2.3M12.12 79.54h2.3M30.22 113.15v-1.23M29.6 112.53h1.23"/><path class="cls-19" d="M36.27 43.89h2.64a1.94 1.94 0 0 0 2.49 1.49 24.69 24.69 0 0 1 0 3.11c-.24 3.29-2.26 5.37-5.12 7.16-2.86-1.79-4.88-3.87-5.12-7.16a24.68 24.68 0 0 1 0-3.11 1.94 1.94 0 0 0 2.49-1.49h2.64z"/><rect class="cls-20" x="34.18" y="48.48" width="4.18" height="3.2" rx=".31" ry=".31"/><path class="cls-21" d="M35.09 48.49h2.35v-1.54a.55.55 0 0 0-.55-.55h-1.25a.55.55 0 0 0-.55.55v1.54z"/><path class="cls-16" d="M36.27 49.41a.36.36 0 0 1 .16.67v.59a.16.16 0 0 1-.16.16.16.16 0 0 1-.16-.16v-.58a.36.36 0 0 1 .16-.68z"/><path class="cls-22" d="M0 0h141.73v141.73H0z"/></svg>