<svg id="Layer_1" data-name="Layer 1" xmlns="http://www.w3.org/2000/svg" viewBox="0 0 141.73 141.73"><defs><style>.cls-1,.cls-11,.cls-12,.cls-13,.cls-14,.cls-15,.cls-16,.cls-17{fill:none}.cls-2,.cls-4{fill:#d9dada}.cls-14,.cls-15,.cls-2,.cls-9{fill-rule:evenodd}.cls-3{fill:#fab63c}.cls-5{fill:#96bee6}.cls-6,.cls-9{fill:#fbfbfc}.cls-15,.cls-17,.cls-6,.cls-7,.cls-9{stroke:#255c94}.cls-12,.cls-13,.cls-14,.cls-15,.cls-16,.cls-17,.cls-6,.cls-7,.cls-9{stroke-linecap:round;stroke-linejoin:round}.cls-10,.cls-11,.cls-12,.cls-13,.cls-14,.cls-16,.cls-6,.cls-7,.cls-9{stroke-width:1.19px}.cls-10,.cls-7{fill:#fff}.cls-8{fill:#255c94}.cls-10,.cls-11,.cls-12{stroke:#fab63c}.cls-10,.cls-11{stroke-miterlimit:22.93}.cls-13,.cls-14{stroke:#3980c3}.cls-15,.cls-17{stroke-width:1.29px}.cls-16{stroke:#285d93}</style></defs><path class="cls-1" d="M0 0h141.73v141.73H0z"/><path class="cls-2" d="M115.7 63.74h-10.32c-3.57 0-3.69 1.16-3.69 4.44 0 2.41-.95 3.18-3 3.17a1.69 1.69 0 0 0-1.68 1.68 1.69 1.69 0 0 0 1.68 1.68h8.21a6.52 6.52 0 0 1 6.5 6.5 6.52 6.52 0 0 1-6.5 6.5h11.93a7 7 0 0 1 6.93 6.93 7 7 0 0 1-6.93 6.93h-11.09a2.47 2.47 0 0 0-2.22 2.45 2.47 2.47 0 0 0 2.22 2.45h2.46a5.94 5.94 0 0 1 5.92 5.92 5.94 5.94 0 0 1-5.92 5.92H34.29a7.24 7.24 0 0 1-7.22-7.22 7.24 7.24 0 0 1 7.22-7.22c1.51 0 2.74-.77 2.74-2.46a2.47 2.47 0 0 0-2.46-2.46h-9.48a8.24 8.24 0 0 1-8.21-8.21 8.24 8.24 0 0 1 8.21-8.21H44.9a6.9 6.9 0 0 1-6.88-6.88 6.9 6.9 0 0 1 6.88-6.88h10.51a2.17 2.17 0 0 0 2.12-2.15 2.12 2.12 0 0 0-2.12-2.12h-2.27a7.81 7.81 0 0 1-7.08-7.67 7.61 7.61 0 0 1 2.52-5.65h-2.44A5.19 5.19 0 0 1 40.96 46a5.19 5.19 0 0 1 5.18-5.18h6.41a4.27 4.27 0 0 0 3.62-4.21c0-1.08-.47-2-.47-3.39a7.65 7.65 0 0 1 7.62-7.62h30.43a7.65 7.65 0 0 1 7.62 7.62 7.65 7.65 0 0 1-7.62 7.62h-.38a3.82 3.82 0 0 0-3.81 3.81 3.82 3.82 0 0 0 3.81 3.81h22.33a7.65 7.65 0 0 1 7.62 7.62 7.65 7.65 0 0 1-7.62 7.66z"/><rect class="cls-3" x="38.18" y="29.27" width="10.62" height="7.57" rx="3.78" ry="3.78"/><rect class="cls-4" x="25.97" y="51.88" width="17.63" height="9.99" rx="4.99" ry="4.99"/><rect class="cls-5" x="96.58" y="69.7" width="4.83" height="3.57" rx="1.79" ry="1.79"/><circle class="cls-5" cx="91.62" cy="48.48" r="1.3"/><circle class="cls-3" cx="119.14" cy="82.13" r="2.38"/><rect class="cls-6" x="59.23" y="31.89" width="36.66" height="75.69" rx="4.86" ry="4.86"/><path class="cls-7" d="M61.8 42.02h31.53v54.61H61.8z"/><circle class="cls-6" cx="77.56" cy="102.08" r="3.21"/><rect class="cls-6" x="73.61" y="38.06" width="7.9" height="1.75" rx=".88" ry=".88"/><circle class="cls-8" cx="77.56" cy="35.58" r=".82"/><path class="cls-9" d="M95.89 47.91c.38 3.42-1.7 3.79-.66 6.79 1.66 4.79 8.39 1.34 5.64-3.54a5.89 5.89 0 0 0-4.98-3.25zM93.44 61.54c.79-.32 1.61-.62 2.47-.9 8.35-2.7 10.45 7.06 3.19 8.26-2.57.43-5.43.79-7.27-.63-3.24-2.51-1.7-5.38 1.61-6.73zM95.92 89.84c.75-1.67.61-2.7-1.12-3.08-2.88-.64-6-3-5.11-6.21l10.84-1c3.87 4.64.31 8.75-4.61 10.29zM63.2 70c-.13-2.93-1.6-6.52-1.41-8.36a5.45 5.45 0 0 1 1.13-2.73c4.13-3.75 10.15-7.67 12-13a25.63 25.63 0 0 0 1-4.06c.81-4.64-1.18-11.33-5.21-5.57l-5 6.61-10.37 9.48c-13.3 10.6-8.61 9.25-12.32 20.77-3.13 9.71-4.19 13.14-13.75 13.14h-3.82a4.67 4.67 0 0 0-4.7 4.64 4.71 4.71 0 0 0 4.7 4.7h12.4a4.2 4.2 0 0 1 4.19 4.19 4.2 4.2 0 0 1-4.19 4.19h-1.88a4.38 4.38 0 0 0-4.38 4.38 4.38 4.38 0 0 0 4.38 4.37c1.65 0 3.09 0 4.37-.13 6.07-.43 18.82-5.59 18.81-12.43V86.74c.05-3.8 4.8-6.55 4.05-16.74z"/><path class="cls-9" d="M88.44 77.45c-.47 7 16.83 3.83 14.47-2.7-1.84-5.08-7-2.94-10.55-1.31-1.75.75-3.78 1.83-3.92 4.01z"/><rect class="cls-10" x="67.83" y="63.01" width="19.46" height="13.29" rx="1.71" ry="1.71"/><rect class="cls-3" x="67.83" y="65.51" width="19.46" height="3.26" rx=".42" ry=".42"/><rect class="cls-11" x="70.53" y="70.82" width="4.42" height="2.87" rx="1.37" ry="1.37"/><path class="cls-12" d="M84.6 73.69h-4.07M84.6 70.82h-5.92"/><circle class="cls-13" cx="77.56" cy="84.38" r="3.57"/><path class="cls-14" d="M78.97 83.53l-2 2.01-1-.99"/><path class="cls-15" d="M107.7 36.68a47.84 47.84 0 0 1 14.08 39.51M98.93 111.84a47.84 47.84 0 0 1-41.85 3.68M56.45 26.47a47.84 47.84 0 0 1 35.68 0M36.81 41.09A47.83 47.83 0 0 1 49.7 29.81"/><circle class="cls-3" cx="23.44" cy="105.87" r="2.38"/><path class="cls-16" d="M23.96 71.81h-2.72M50.68 71.81H25.97M27.3 76.54h-2.72M54.02 76.54H29.31"/><path class="cls-17" d="M20.41 57.01v-2.5M19.16 55.76h2.49M32.86 50.02v-2.01M31.85 49.01h2.01M31.21 67.14v-2.01M30.21 66.14h2.01M17.08 82.23v-2.01M16.07 81.23h2.01M44.52 118.22v-2M43.52 117.22h2.01"/><path class="cls-2" d="M105.2 29.64h8.53a.43.43 0 0 0 .38-.42.43.43 0 0 0-.38-.42h-3a1.36 1.36 0 0 1-1.35-1.35 1.36 1.36 0 0 1 1.35-1.35h11.2a1.36 1.36 0 0 1 1.35 1.35 1.36 1.36 0 0 1-1.35 1.35h-4.83a.43.43 0 0 0-.42.42.43.43 0 0 0 .42.42h2.1a1.74 1.74 0 0 1 1.74 1.74 1.74 1.74 0 0 1-1.74 1.74h-14a1.74 1.74 0 0 1-1.74-1.74 1.74 1.74 0 0 1 1.74-1.74z"/><path class="cls-17" d="M22.77 114.16v-2.01M21.77 113.15h2"/><path class="cls-16" d="M44.3 101H15.95M51.22 101h-3.77"/><path class="cls-17" d="M45.43 94.93v-2.01M44.43 93.92h2.01M28.88 90.16v-1.33M28.21 89.49h1.33"/><path class="cls-16" d="M79.76 45.22l10.73 10.91M89.73 51.46l.45.45M83.06 44.57l5.27 5.46"/></svg>