<svg id="Layer_1" data-name="Layer 1" xmlns="http://www.w3.org/2000/svg" viewBox="0 0 141.73 141.73"><defs><style>.cls-1,.cls-11,.cls-14,.cls-15,.cls-16,.cls-17,.cls-6,.cls-7{fill:none}.cls-13,.cls-2{fill:#fcd353}.cls-12,.cls-16,.cls-17,.cls-18,.cls-2,.cls-3,.cls-4,.cls-5,.cls-7,.cls-8,.cls-9{fill-rule:evenodd}.cls-3{fill:#96bee6}.cls-10,.cls-12,.cls-3,.cls-4,.cls-5,.cls-6,.cls-7,.cls-9{stroke:#285d93;stroke-width:1.19px}.cls-10,.cls-11,.cls-12,.cls-14,.cls-15,.cls-16,.cls-17,.cls-3,.cls-4,.cls-5,.cls-6,.cls-7,.cls-9{stroke-linecap:round;stroke-linejoin:round}.cls-4{fill:#fbfbfc}.cls-10,.cls-5{fill:#fff}.cls-8{fill:#285d93}.cls-9{fill:#e1e2e1}.cls-11,.cls-14,.cls-15,.cls-16,.cls-17{stroke:#255c94}.cls-11{stroke-width:1.32px}.cls-12{fill:#fdc73d}.cls-14,.cls-16,.cls-15,.cls-17{stroke-width:1.21px}.cls-18{fill:#fab63c}</style></defs><path class="cls-1" d="M0 0h141.73v141.73H0z"/><path class="cls-2" d="M74.48 28.47h35.78a4.12 4.12 0 0 1 4.11 4.11 4.12 4.12 0 0 1-4.11 4.11h-.59a2.7 2.7 0 0 0-2.69 2.69 2.7 2.7 0 0 0 2.69 2.69h14a4.12 4.12 0 0 1 4.11 4.11 4.12 4.12 0 0 1-4.11 4.11h-6.41a2.7 2.7 0 0 0-2.69 2.69 2.7 2.7 0 0 0 2.69 2.69h.44a4.12 4.12 0 0 1 4.11 4.11 4.12 4.12 0 0 1-4.11 4.11h-1a42.91 42.91 0 0 1-39.53 50.27 4.09 4.09 0 0 1-.84.09H41.49a4.12 4.12 0 0 1-4.11-4.11 4.12 4.12 0 0 1 4.11-4.11h10.68a3.74 3.74 0 0 0 3.73-3.73c0-2-5.78-3.73-3.73-3.73H22.81a4.12 4.12 0 0 1-4.11-4.11 4.12 4.12 0 0 1 4.11-4.11h11.51a2.7 2.7 0 0 0 2.69-2.69 2.7 2.7 0 0 0-2.69-2.69h-3.76a4.12 4.12 0 0 1-4.11-4.11 4.12 4.12 0 0 1 4.11-4.11h1.37a42.91 42.91 0 0 1 42.55-48.28z"/><path class="cls-3" d="M29.62 49.05l72.32-3.18a2.31 2.31 0 0 0 2.19-2.35 2.21 2.21 0 0 0-2.3-2.15l-72.32 3.22a2.31 2.31 0 0 0-2.19 2.35 2.21 2.21 0 0 0 2.3 2.11zM29.44 89.94l7.59-.1a14 14 0 0 1 0-4.51l-7.67.11a2.27 2.27 0 0 0-2.23 2.28 2.25 2.25 0 0 0 2.27 2.22zm35-.48l15.9-.22a13.92 13.92 0 0 1 .24-4.51l-16.31.22a14 14 0 0 1 .17 4.5zm43.45-.6l12.87-.18a2.27 2.27 0 0 0 2.23-2.28 2.25 2.25 0 0 0-2.27-2.22l-13.19.18a13.87 13.87 0 0 1 .41 3.36c-.01.39-.02.76-.05 1.14z"/><path class="cls-4" d="M29.4 85.43l.22-36.38 72.32-3.18 3.92 16.93 13.74 8.56.18 12.82-12.25.17a13.84 13.84 0 0 0-26.94.37l-16.31.22a13.84 13.84 0 0 0-27.2.37z"/><path class="cls-5" d="M82.35 50.94l13.22-.71 3.9 13.32H82.35V50.94z"/><path class="cls-6" d="M82.5 67.72h4.06M80.44 84.73v-8.79M39.61 70.64h2.57M14.4 70.64h23.31M36.45 75.11h2.58M11.25 75.11h23.31M84.65 53.44l5.33 5.42M93.29 58.46l.42.43M88.38 53.48l3.58 3.64"/><path class="cls-7" d="M56.47 69.4a28 28 0 0 1-8.62-14.89 39.16 39.16 0 0 1 15.67-.81 28 28 0 0 1-7.05 15.7z"/><path class="cls-7" d="M56.26 65.36a25.13 25.13 0 0 0 4.07-9.29 36.62 36.62 0 0 0-9.07.47 25.14 25.14 0 0 0 5 8.82z"/><path class="cls-8" d="M55.78 56.02a36.43 36.43 0 0 0-4.52.52 25.14 25.14 0 0 0 5 8.83z"/><path class="cls-9" d="M50.7 98.87a11.15 11.15 0 1 0-11.15-11.15A11.17 11.17 0 0 0 50.7 98.87z"/><circle class="cls-10" cx="50.7" cy="87.72" r="5.01"/><path class="cls-11" d="M52.07 89.09l-2.74-2.74M49.33 89.09l2.74-2.74"/><path class="cls-9" d="M94.09 98.87a11.15 11.15 0 1 0-11.15-11.15 11.17 11.17 0 0 0 11.15 11.15z"/><circle class="cls-10" cx="94.09" cy="87.72" r="5.01"/><path class="cls-11" d="M95.46 89.09l-2.74-2.74M92.72 89.09l2.74-2.74"/><path class="cls-12" d="M119.64 74.59h-1.74a2.36 2.36 0 0 0-2.35 2.35 2.36 2.36 0 0 0 2.35 2.35h1.74v-4.7z"/><circle class="cls-13" cx="29.61" cy="110.13" r="4.1"/><circle class="cls-13" cx="122.36" cy="32.57" r="4.1"/><path class="cls-14" d="M10.04 94.58v-2.36"/><path class="cls-15" d="M8.86 93.4h2.35M22.92 67.5v-1.9"/><path class="cls-14" d="M21.98 66.55h1.89M21.79 87.99v-1.9"/><path class="cls-15" d="M20.84 87.04h1.89M20.59 104.07v-1.89M19.64 103.12h1.89"/><path class="cls-14" d="M19.16 116.77v-1.9"/><path class="cls-15" d="M18.21 115.82h1.9M17.96 48.91v-1.89"/><path class="cls-14" d="M17.01 47.97h1.9"/><path class="cls-16" d="M58.26 28.07a45.13 45.13 0 0 1 43.7 5.66"/><path class="cls-17" d="M107.61 104.78a45.13 45.13 0 0 1-52.24 6.7"/><path class="cls-16" d="M44.4 36.8a45.13 45.13 0 0 1 7.46-5.58"/><path class="cls-18" d="M24.98 33.67h8a.4.4 0 0 0 .36-.4.4.4 0 0 0-.36-.4h-2.82a1.28 1.28 0 0 1-1.28-1.28 1.28 1.28 0 0 1 1.28-1.28h10.57a1.28 1.28 0 0 1 1.28 1.28 1.28 1.28 0 0 1-1.28 1.28h-4.55a.4.4 0 0 0-.4.4.4.4 0 0 0 .4.4h2a1.64 1.64 0 0 1 1.64 1.64 1.64 1.64 0 0 1-1.64 1.64h-13.2a1.64 1.64 0 0 1-1.64-1.64 1.64 1.64 0 0 1 1.64-1.64zM115.85 98.59h8a.4.4 0 0 0 .36-.4.4.4 0 0 0-.36-.4h-2.86a1.28 1.28 0 0 1-1.28-1.28 1.28 1.28 0 0 1 1.28-1.28h10.57a1.28 1.28 0 0 1 1.28 1.28 1.28 1.28 0 0 1-1.28 1.28h-4.55a.4.4 0 0 0-.4.4.4.4 0 0 0 .4.4h2a1.64 1.64 0 0 1 1.64 1.64 1.64 1.64 0 0 1-1.64 1.64h-13.16a1.64 1.64 0 0 1-1.64-1.64 1.64 1.64 0 0 1 1.64-1.64z"/><path class="cls-6" d="M13.64 79.14h4.88M31.82 103.36h4.88M14.24 54.5h6.28M36.32 98.87h21.34M84.07 98.87h15.65"/></svg>